<?xml version="1.0" standalone="no"?>
<!DOCTYPE svg PUBLIC "-//W3C//DTD SVG 20010904//EN"
 "http://www.w3.org/TR/2001/REC-SVG-20010904/DTD/svg10.dtd">
<svg version="1.0" xmlns="http://www.w3.org/2000/svg"
 width="454.000000pt" height="454.000000pt" viewBox="0 0 454.000000 454.000000"
 preserveAspectRatio="xMidYMid meet">
<metadata>
Created by potrace 1.14, written by Peter Selinger 2001-2017
</metadata>
<g transform="translate(0.000000,454.000000) scale(0.100000,-0.100000)"
fill="#000000" stroke="none">
<path d="M3247 4433 c-49 -117 -74 -187 -82 -230 -3 -16 -7 -39 -10 -53 -3
-14 -12 -77 -21 -140 -9 -63 -17 -117 -19 -120 -2 -3 -36 -7 -77 -8 -106 -4
-148 -17 -148 -46 0 -32 19 -46 70 -51 24 -2 47 -10 51 -17 4 -7 7 -36 7 -65
-2 -42 3 -57 21 -77 l24 -25 3 -411 3 -411 -23 -9 c-13 -5 -26 -20 -30 -36
l-7 -27 -26 36 c-47 66 -78 41 -71 -58 3 -36 4 -65 2 -65 -3 0 -24 20 -47 45
-46 48 -70 56 -85 28 -7 -12 -2 -35 18 -82 16 -36 42 -112 60 -168 17 -57 46
-140 65 -185 22 -55 30 -89 25 -103 -12 -35 8 -79 59 -132 34 -35 52 -63 57
-88 3 -20 4 -38 1 -41 -3 -3 -36 9 -73 27 -76 37 -132 44 -185 23 -30 -12 -42
-28 -74 -92 -21 -42 -40 -83 -41 -90 -3 -14 12 -16 21 -2 12 19 79 30 118 19
40 -11 112 -77 154 -144 14 -21 38 -52 53 -68 l28 -30 0 -472 c0 -348 -3 -472
-12 -472 -15 -1 -95 -12 -131 -20 -16 -3 -43 -14 -58 -25 -28 -20 -28 -23 -23
-86 3 -36 8 -67 10 -70 8 -7 126 -30 191 -37 114 -11 105 0 101 -122 -3 -105
-2 -108 23 -134 33 -32 81 -41 351 -64 30 -3 111 -7 180 -10 69 -4 161 -8 204
-11 44 -2 205 -6 358 -9 l278 -5 0 2270 0 2270 -35 0 c-19 0 -35 -3 -36 -7 -8
-58 -21 -320 -24 -478 -2 -66 -3 -127 -4 -135 -1 -12 -16 -14 -85 -12 -81 3
-83 4 -80 27 1 13 5 91 9 172 3 81 8 168 10 193 2 25 6 81 10 125 3 44 8 88
11 98 4 14 -1 17 -29 17 l-35 0 -7 -62 c-4 -35 -9 -71 -10 -82 -3 -17 -7 -52
-21 -221 -3 -40 -9 -144 -13 -252 -1 -10 -26 -13 -91 -13 l-89 0 4 38 c2 20 7
84 9 142 3 58 8 125 11 150 10 73 44 266 51 284 5 14 -8 16 -123 16 l-130 0
-17 -62 c-9 -35 -19 -74 -21 -88 -3 -14 -9 -47 -15 -75 -5 -27 -12 -69 -15
-92 -3 -24 -7 -60 -9 -80 -3 -21 -8 -78 -11 -128 -4 -49 -10 -94 -14 -98 -5
-4 -37 -7 -72 -5 -53 2 -64 6 -63 20 4 51 15 158 18 174 2 11 7 39 11 64 4 25
9 53 10 62 7 37 47 172 70 235 14 38 25 69 25 70 0 2 -17 3 -39 3 -33 0 -40
-4 -49 -27 -27 -73 -65 -234 -78 -323 -2 -19 -6 -48 -9 -65 -2 -16 -7 -70 -11
-120 -3 -49 -10 -95 -15 -101 -9 -11 -67 -13 -85 -2 -10 7 -10 42 1 148 12
120 78 354 127 453 l18 37 -44 0 c-49 0 -43 8 -87 -120 -28 -80 -45 -142 -55
-200 -2 -14 -6 -36 -9 -50 -2 -14 -7 -54 -10 -90 -6 -64 -22 -171 -27 -176 -4
-3 -31 -7 -47 -5 -16 1 -10 80 19 236 14 76 18 95 31 134 19 62 70 194 90 234
l19 37 -94 0 -94 0 -45 -107z m141 77 c-7 -10 -14 -18 -15 -16 -6 6 9 36 18
36 5 0 4 -9 -3 -20z m-27 -67 c-8 -15 -10 -15 -11 -2 0 17 10 32 18 25 2 -3
-1 -13 -7 -23z m-36 -94 c-24 -66 -52 -200 -59 -284 -3 -26 -17 -117 -22 -137
-1 -5 -2 -12 -3 -18 0 -5 -5 -10 -11 -10 -9 0 -7 38 4 135 11 85 18 130 21
136 2 3 7 21 10 39 7 39 65 193 71 187 2 -2 -3 -24 -11 -48z m1179 -256 c-2
-152 -3 -163 -13 -163 -5 0 -8 21 -5 48 2 26 5 86 6 134 2 47 5 85 8 83 3 -2
5 -48 4 -102z m-1134 -604 c4 -87 4 -873 1 -971 -2 -36 -37 -20 -56 25 -16 38
-18 86 -20 547 -1 278 0 508 2 512 2 4 18 6 36 4 l32 -3 5 -114z m162 102 c15
-1 16 -58 14 -720 0 -396 -5 -723 -9 -727 -4 -4 -7 0 -7 10 0 9 -6 27 -14 39
-8 12 -17 38 -21 57 -4 19 -23 66 -41 103 l-34 69 1 581 c1 320 5 584 9 587 4
3 25 4 47 3 21 -1 45 -2 55 -2z m209 -11 c5 -111 3 -1301 -3 -1319 -11 -30
-102 -131 -120 -131 -27 0 -29 60 -29 748 1 413 5 708 10 711 5 3 39 6 75 6
52 0 66 -3 67 -15z m185 11 l31 -1 2 -456 c1 -325 -1 -467 -10 -493 -17 -55
-26 -57 -20 -4 4 27 6 54 5 61 -1 6 -2 22 -3 35 -1 17 -3 19 -10 7 -10 -16
-16 -53 -26 -140 -8 -76 -23 -123 -67 -210 l-37 -75 1 635 c0 349 4 637 9 640
4 3 27 4 51 3 23 0 57 -2 74 -2z m134 -73 c6 -164 5 -728 -2 -728 -4 0 -8 5
-8 11 0 5 -5 7 -11 4 -10 -7 -12 681 -2 752 8 51 20 30 23 -39z m371 -145 c0
-120 2 -449 4 -730 l5 -513 -35 0 c-34 0 -35 1 -35 43 0 23 -2 351 -3 730 l-2
687 33 0 32 0 1 -217z m75 -543 c-5 -732 -4 -695 -13 -687 -11 12 -17 282 -17
847 -1 308 3 558 8 575 20 65 26 -120 22 -735z m-65 -827 c0 -21 3 -60 5 -88
6 -89 6 -1047 0 -1149 -7 -107 -15 -126 -52 -126 -22 0 -24 4 -24 53 -1 66 -1
1248 0 1305 0 41 1 42 35 42 34 0 35 -1 36 -37z m69 -188 c1 -55 3 -154 5
-220 6 -199 6 -673 0 -785 -6 -120 -8 -137 -18 -146 -4 -4 -7 119 -8 274 -2
674 3 1072 11 1022 4 -25 8 -90 10 -145z m-446 -185 c1 -241 0 -260 -16 -260
-16 0 -17 17 -17 229 1 201 11 312 28 296 2 -3 5 -122 5 -265z m-115 125 c3
-11 4 -95 1 -187 l-5 -167 -45 20 c-25 11 -57 32 -72 46 -27 26 -28 29 -28
140 0 63 4 112 8 109 24 -15 70 -15 76 -1 3 8 12 15 20 15 19 0 27 25 13 40
-9 9 -8 11 7 8 10 -1 22 -12 25 -23z m-215 -131 c-1 -25 -4 -47 -6 -50 -2 -2
-24 14 -49 36 l-44 39 35 1 c19 0 42 5 50 10 8 5 15 10 16 10 0 0 -1 -21 -2
-46z m-395 -240 l31 -6 0 -383 0 -383 -32 3 c-18 2 -35 4 -38 4 -9 2 -9 771
-1 771 5 0 23 -3 40 -6z m159 -43 c25 -13 21 -31 -7 -31 -10 0 -24 -14 -34
-34 -14 -29 -14 -36 -2 -46 8 -6 20 -12 27 -14 28 -4 56 -44 58 -83 1 -21 2
-142 1 -269 l-1 -232 -32 -3 c-18 -2 -45 -3 -60 -1 l-28 3 1 364 1 363 26 -2
c15 -1 37 -8 50 -15z m234 -368 c-2 -186 -4 -339 -6 -341 -2 -1 -33 -4 -70 -5
l-66 -2 0 263 c0 259 0 263 20 257 11 -4 20 -2 20 4 0 6 -9 20 -20 31 -38 38
-17 65 31 40 10 -6 19 -7 19 -2 0 5 -11 15 -25 22 -32 17 -24 27 31 41 24 6
44 15 44 20 0 5 6 9 13 9 9 0 11 -73 9 -337z m161 240 l54 -52 6 -238 c3 -131
8 -248 11 -261 5 -23 4 -23 -77 -20 l-82 3 -1 322 c-1 366 -10 339 89 246z
m169 -115 c2 -7 3 -71 2 -143 -1 -71 -3 -169 -3 -217 -1 -49 -5 -88 -9 -88
-11 0 -10 -13 -16 243 -3 174 -2 217 9 217 7 0 15 -6 17 -12z"/>
<path d="M1297 4100 c-4 -8 -14 -46 -22 -85 -22 -99 -23 -103 -33 -122 -7 -12
-8 9 -5 65 8 125 -18 99 -31 -31 -16 -157 -64 -266 -177 -400 -42 -51 -88
-102 -102 -115 -24 -23 -25 -23 -57 -5 -20 11 -35 28 -37 43 -2 13 -8 29 -15
37 -6 7 -12 27 -14 44 -4 35 -57 154 -73 163 -6 4 -19 27 -30 51 -16 36 -25
45 -45 45 -17 0 -26 6 -26 16 0 9 -7 31 -16 50 -12 25 -23 34 -40 34 -18 0
-25 7 -30 28 -4 15 -18 42 -32 60 -25 34 -38 37 -84 17 -14 -5 -18 -2 -18 14
0 12 -9 30 -21 42 -18 18 -23 19 -42 6 -12 -8 -24 -25 -27 -38 -5 -22 -7 -22
-29 14 -26 42 -45 47 -65 15 -10 -17 -12 -39 -7 -80 4 -32 5 -58 3 -58 -3 0
-25 20 -49 45 -46 47 -63 54 -82 31 -9 -11 -5 -30 18 -88 16 -40 44 -121 62
-178 17 -58 45 -136 61 -173 21 -49 27 -78 24 -102 -8 -46 6 -77 53 -123 36
-35 96 -140 87 -150 -2 -2 -44 15 -92 38 -77 37 -94 42 -136 37 -26 -3 -56
-11 -67 -16 -20 -11 -87 -127 -98 -169 l-5 -23 39 21 c48 25 100 21 146 -12
38 -26 34 -23 114 -126 65 -84 168 -165 283 -222 49 -25 72 -31 160 -46 39 -7
80 -25 80 -36 0 -5 -9 -12 -20 -15 -12 -3 -28 -19 -36 -35 -14 -27 -14 -31 2
-49 9 -10 21 -16 26 -13 5 3 18 -6 29 -20 11 -14 24 -26 29 -26 5 0 21 -5 37
-12 39 -16 53 -18 53 -7 0 11 -33 45 -51 51 -18 6 -1 28 22 28 11 0 29 -5 39
-10 16 -8 18 -7 14 4 -3 8 -14 16 -25 19 -32 8 -21 25 24 38 23 7 49 18 58 26
9 7 18 10 21 7 4 -3 18 -7 33 -8 27 -3 44 -16 130 -98 51 -48 168 -113 186
-103 14 9 128 -105 145 -144 36 -86 35 -87 -56 -40 -91 47 -137 53 -201 27
-29 -13 -42 -29 -72 -91 -49 -100 -49 -112 -2 -81 32 21 99 20 133 -2 36 -23
85 -76 138 -149 51 -72 53 -73 176 -152 111 -72 126 -79 228 -100 107 -22 140
-43 87 -57 -21 -5 -47 -42 -47 -67 0 -6 16 -17 35 -25 19 -8 35 -19 35 -24 0
-12 82 -50 106 -50 12 0 12 4 -2 25 -9 14 -23 25 -30 25 -19 0 -18 26 1 34 8
3 26 1 40 -4 15 -6 25 -6 25 0 0 5 -9 12 -20 15 -27 9 -25 23 5 35 14 6 37 15
53 22 62 28 107 7 220 -101 39 -37 135 -92 172 -97 8 -1 32 -6 53 -9 25 -5 37
-4 37 4 0 6 -4 11 -10 11 -25 0 -7 28 22 34 31 6 31 6 12 27 -18 20 -18 21 1
31 18 10 17 12 -11 34 -16 13 -23 24 -16 24 21 0 13 26 -13 40 -14 7 -25 17
-25 21 0 15 -68 48 -165 80 -95 32 -103 36 -172 106 -40 40 -92 88 -117 107
-46 35 -44 46 5 46 11 0 31 7 44 16 14 9 25 13 25 10 0 -4 9 -2 20 4 11 6 19
16 17 23 -1 7 5 10 13 9 62 -15 80 -14 80 2 0 9 8 16 20 16 17 0 19 5 14 25
-6 24 -5 25 21 15 35 -13 48 -4 40 27 -5 21 -3 24 10 19 25 -9 37 2 25 24 -8
15 -6 17 10 13 14 -4 21 1 26 21 3 14 10 26 15 26 5 0 9 8 9 19 0 10 6 24 14
31 8 6 13 17 10 25 -3 7 -1 16 5 20 6 3 11 14 11 24 0 10 9 28 20 41 12 14 18
31 15 41 -4 10 1 30 11 44 9 14 14 35 12 48 -2 13 1 29 9 35 20 19 27 63 14
84 -9 15 -9 28 -1 54 9 26 9 38 0 49 -9 10 -9 27 -2 60 10 47 5 59 -21 49 -13
-4 -14 0 -8 28 4 18 7 41 5 51 -3 24 -24 48 -35 41 -5 -3 -9 5 -10 18 -1 53
-21 109 -37 107 -20 -3 -30 3 -36 24 -9 30 -21 8 -30 -54 -11 -73 -16 -97 -26
-125 -16 -42 -22 -22 -10 32 15 66 20 164 9 164 -5 0 -9 -3 -10 -7 -1 -14 -8
-46 -24 -117 -23 -105 -36 -116 -29 -25 7 96 -10 114 -25 26 -6 -35 -11 -77
-11 -94 0 -40 -26 -124 -61 -196 -33 -69 -82 -135 -169 -229 -58 -64 -90 -84
-90 -56 0 6 -3 8 -6 5 -11 -10 -46 14 -41 27 3 8 -3 28 -14 45 -10 17 -19 41
-19 53 0 23 -57 150 -71 159 -5 3 -19 25 -32 50 -14 28 -30 45 -43 47 -15 2
-27 17 -39 48 -9 24 -22 45 -28 46 -7 0 -19 1 -27 2 -8 1 -16 10 -18 21 -13
71 -63 116 -105 94 -11 -7 -22 -8 -24 -3 -12 33 -31 59 -46 62 -23 5 -47 -15
-47 -39 0 -28 -12 -23 -38 16 -26 41 -36 43 -57 11 -12 -18 -14 -38 -9 -86 l6
-62 -49 51 c-54 55 -64 59 -84 35 -11 -13 -10 -23 6 -62 27 -69 94 -267 91
-270 -2 -1 -44 12 -95 30 -82 28 -97 38 -149 92 -45 48 -115 110 -162 144 -10
7 23 19 41 15 11 -3 27 1 37 9 9 9 29 18 45 22 15 3 27 13 27 21 0 15 12 15
73 -2 10 -3 17 1 17 10 0 8 10 17 21 20 16 4 20 11 16 27 -5 19 -2 20 30 14
35 -7 36 -6 31 20 -5 22 -2 26 19 26 20 0 23 4 18 20 -5 16 -2 20 14 20 14 0
21 6 21 19 0 10 7 22 16 25 8 3 12 11 9 17 -4 5 1 19 11 30 9 10 14 22 11 25
-3 4 0 16 8 28 8 11 15 28 15 37 0 10 5 19 11 21 6 2 12 17 13 33 2 17 8 40
14 52 7 12 12 35 12 51 0 16 7 35 15 42 17 14 20 71 5 86 -6 6 -6 21 2 42 10
25 10 37 1 51 -9 14 -9 29 -3 53 15 50 13 61 -10 55 -18 -5 -19 0 -17 52 2 50
-1 57 -20 66 -18 7 -23 18 -23 45 0 39 -23 80 -45 80 -7 0 -17 9 -20 20 -9 30
-23 24 -30 -12 -23 -120 -38 -178 -47 -184 -8 -5 -9 1 -5 17 24 88 35 245 14
199z"/>
</g>
</svg>
