<?xml version="1.0" standalone="no"?>
<!DOCTYPE svg PUBLIC "-//W3C//DTD SVG 20010904//EN"
 "http://www.w3.org/TR/2001/REC-SVG-20010904/DTD/svg10.dtd">
<svg version="1.0" xmlns="http://www.w3.org/2000/svg"
 width="640.000000pt" height="640.000000pt" viewBox="0 0 640.000000 640.000000"
 preserveAspectRatio="xMidYMid meet">
<metadata>
Created by potrace 1.14, written by Peter Selinger 2001-2017
</metadata>
<g transform="translate(0.000000,640.000000) scale(0.100000,-0.100000)"
fill="#000000" stroke="none">
<path d="M4370 6104 c-7 -20 -12 -53 -12 -74 1 -36 10 -59 61 -155 23 -42 28
-90 10 -100 -5 -4 -14 -18 -19 -30 -5 -13 -22 -32 -37 -41 -45 -28 -73 -57
-89 -90 -17 -37 -44 -51 -169 -93 -33 -11 -86 -27 -117 -36 -32 -8 -58 -20
-58 -25 0 -5 -37 -33 -82 -63 -101 -65 -270 -200 -320 -256 -49 -54 -189 -236
-215 -281 -26 -43 -97 -210 -130 -305 -22 -63 -36 -124 -48 -210 -2 -16 -7
-48 -10 -70 -3 -22 -8 -58 -10 -79 -7 -49 -8 -51 -53 -52 -57 -2 -164 -14
-173 -20 -14 -8 -10 -51 6 -64 8 -7 34 -14 57 -16 23 -2 44 -6 46 -9 5 -5 10
-55 11 -102 1 -19 10 -40 22 -52 21 -19 21 -28 25 -418 2 -219 1 -406 -2 -415
-3 -10 -12 -18 -20 -18 -8 0 -20 -14 -27 -32 l-13 -32 -22 37 c-40 69 -78 35
-68 -64 3 -32 3 -59 0 -59 -2 0 -24 20 -47 45 -46 48 -70 56 -85 28 -7 -11 -1
-37 19 -86 16 -38 42 -113 59 -166 16 -53 45 -134 64 -181 22 -56 31 -91 26
-105 -12 -35 8 -79 59 -132 34 -35 52 -63 57 -88 3 -20 4 -38 1 -41 -3 -3 -36
9 -73 27 -81 39 -138 45 -191 18 -31 -16 -44 -33 -72 -92 -49 -102 -49 -109
-5 -80 37 24 106 21 146 -7 35 -24 138 -141 138 -157 0 -5 13 -22 29 -37 l29
-28 0 -470 c0 -337 -4 -471 -12 -473 -6 -2 -34 -6 -61 -9 -61 -7 -114 -23
-137 -43 -13 -12 -16 -29 -14 -82 l2 -66 67 -17 c36 -9 101 -20 144 -23 43 -4
81 -9 85 -11 4 -3 6 -46 4 -97 -3 -137 3 -153 67 -172 28 -8 75 -17 102 -20
28 -3 64 -8 80 -10 29 -3 203 -15 295 -20 525 -27 1450 -27 1895 0 173 11 257
17 278 20 12 2 42 6 67 9 102 13 139 25 152 49 9 17 13 63 17 208 1 20 40 36
106 45 28 3 57 7 65 9 8 1 34 6 58 10 55 9 72 34 72 106 0 71 -26 95 -115 104
-111 11 -135 18 -135 38 -3 139 3 1330 6 1382 6 82 6 80 0 170 -4 63 -8 770
-7 1258 l1 187 24 0 c36 0 47 22 49 94 1 56 4 66 19 67 10 1 27 3 38 4 11 1
29 3 39 4 11 0 23 11 27 23 11 34 -24 54 -121 68 -47 7 -87 15 -89 19 -2 3 -7
35 -10 71 -4 36 -8 72 -11 80 -2 8 -6 34 -9 57 -21 181 -149 476 -275 633 -20
25 -40 51 -46 59 -60 82 -320 305 -423 361 -15 8 -37 25 -49 37 -13 12 -35 25
-50 28 -46 10 -216 66 -245 82 -16 7 -28 20 -28 27 0 19 -86 114 -111 121 -10
4 -29 24 -40 46 -18 35 -19 45 -8 77 7 20 24 55 38 76 21 33 26 51 26 105 0
36 -3 78 -8 94 l-7 27 -249 0 -249 0 -12 -36z m260 -648 c0 -21 -21 -31 -31
-15 -5 8 -3 17 4 21 18 12 27 10 27 -6z m160 -7 c0 -6 -4 -7 -10 -4 -5 3 -10
11 -10 16 0 6 5 7 10 4 6 -3 10 -11 10 -16z m-258 -1 c-9 -9 -15 -9 -24 0 -9
9 -7 12 12 12 19 0 21 -3 12 -12z m612 -140 c146 -156 254 -396 316 -698 26
-128 29 -145 35 -220 9 -107 17 -194 18 -205 2 -12 -52 -20 -64 -8 -4 4 -10
44 -13 88 -9 125 -17 177 -51 335 -3 14 -7 34 -9 45 -17 89 -82 285 -127 382
-46 101 -135 253 -183 313 -20 25 -36 49 -36 53 0 17 63 -30 114 -85z m-768
30 c-3 -29 -15 -82 -27 -118 -29 -93 -86 -351 -95 -428 -1 -18 -5 -41 -8 -50
-3 -9 -8 -48 -12 -87 -3 -38 -8 -77 -9 -85 -6 -32 -20 -259 -24 -382 -1 -16
-12 -18 -90 -18 l-88 0 3 48 c2 26 5 90 8 142 14 238 74 519 152 710 59 146
160 320 185 320 8 0 10 -16 5 -52z m607 11 c42 -48 93 -144 135 -250 30 -75
91 -272 98 -319 2 -14 9 -45 14 -70 23 -106 36 -205 45 -340 2 -36 7 -95 10
-132 l5 -68 -35 0 c-19 0 -35 3 -36 8 -1 4 -2 32 -4 62 -8 147 -16 240 -25
295 -5 33 -12 80 -15 105 -7 57 -60 280 -82 345 -10 28 -18 52 -18 55 -4 24
-68 174 -128 298 -31 65 -14 70 36 11z m-461 26 c3 -3 2 -25 -2 -48 -5 -23
-11 -67 -15 -97 -3 -30 -8 -71 -10 -90 -3 -19 -7 -64 -9 -100 -7 -87 -16 -212
-21 -285 -8 -111 -16 -299 -19 -440 l-4 -140 -83 -3 -84 -3 1 38 c11 283 31
534 54 688 5 33 12 78 15 100 4 22 8 48 11 57 3 10 8 30 10 45 10 52 46 185
60 218 7 18 21 40 29 49 16 15 56 22 67 11z m117 -13 c9 -17 15 -66 26 -227 6
-90 20 -444 30 -772 l6 -193 -80 0 -81 0 5 223 c5 262 14 518 20 637 3 47 7
130 10 185 6 106 10 139 20 155 10 16 33 12 44 -8z m154 -69 c38 -133 79 -327
92 -442 3 -25 8 -55 10 -66 2 -11 7 -42 10 -70 3 -27 8 -68 10 -90 10 -86 16
-186 19 -317 l3 -138 -63 0 -64 0 -1 118 c0 188 -13 533 -24 659 -13 156 -16
193 -21 238 -8 69 -10 82 -19 145 -7 54 -7 55 12 38 10 -10 27 -44 36 -75z
m45 66 c25 -40 71 -177 96 -290 23 -105 28 -131 41 -214 2 -16 7 -43 9 -60 6
-34 23 -181 31 -265 3 -30 8 -107 11 -170 3 -63 6 -117 6 -120 3 -39 -4 -70
-17 -70 -25 0 -36 46 -40 165 -5 104 -11 197 -20 275 -2 19 -6 62 -9 95 -12
137 -43 313 -86 485 -21 85 -41 163 -45 173 -10 24 7 21 23 -4z m452 -96 c189
-199 325 -466 374 -735 24 -127 25 -136 32 -217 11 -136 10 -141 -20 -141 -28
0 -33 11 -41 95 -3 33 -8 77 -11 97 -3 21 -7 50 -9 65 -18 134 -126 453 -198
583 -38 69 -123 197 -153 230 -46 51 -104 125 -104 133 0 13 69 -45 130 -110z
m196 -99 c140 -141 260 -368 323 -609 28 -105 65 -385 53 -397 -5 -5 -17 -2
-30 9 -15 13 -22 35 -27 78 -9 88 -25 198 -31 217 -3 9 -7 26 -9 37 -3 12 -7
31 -10 43 -11 52 -61 190 -100 276 -59 129 -138 259 -220 359 -121 148 -106
144 51 -13z m-772 66 c4 -30 8 -73 11 -95 8 -73 15 -165 21 -268 3 -56 7 -127
9 -157 2 -30 7 -161 11 -291 5 -178 4 -238 -5 -244 -7 -4 -15 -5 -18 -2 -3 4
-7 79 -9 169 -3 181 -14 527 -19 628 -2 60 -15 276 -17 289 0 3 0 12 1 20 2
28 9 5 15 -49z m-664 36 c0 -2 -7 -7 -16 -10 -8 -3 -12 -2 -9 4 6 10 25 14 25
6z m958 -162 c17 -45 36 -99 41 -120 6 -22 20 -73 31 -114 19 -68 44 -181 54
-249 3 -14 8 -46 12 -71 10 -65 14 -106 29 -307 l6 -73 -50 0 c-28 0 -51 3
-52 8 0 4 -2 41 -4 82 -4 106 -15 278 -21 325 -2 22 -6 60 -9 85 -4 51 -10 89
-30 210 -22 130 -24 140 -41 215 -9 39 -17 78 -19 88 -2 10 -7 28 -10 40 -14
47 32 -40 63 -119z m-1011 94 c-3 -7 -27 -60 -52 -118 -26 -58 -56 -132 -67
-165 -29 -90 -66 -225 -73 -265 -3 -19 -10 -53 -15 -75 -5 -22 -11 -62 -15
-90 -3 -27 -7 -64 -9 -82 -3 -17 -7 -73 -11 -125 -4 -51 -10 -97 -14 -101 -5
-4 -37 -7 -72 -5 -53 2 -64 6 -63 20 4 54 15 157 19 183 50 304 178 617 325
793 33 40 58 56 47 30z m-193 -90 c-97 -153 -200 -447 -229 -655 -3 -18 -7
-48 -10 -65 -2 -18 -7 -73 -11 -123 -3 -49 -10 -95 -15 -101 -15 -19 -81 -11
-89 10 -19 56 24 295 87 476 49 142 167 361 255 473 40 50 47 41 12 -15z
m1880 -78 c92 -124 124 -179 176 -311 62 -155 83 -222 95 -306 22 -158 28
-253 16 -253 -6 0 -11 3 -12 8 0 4 -2 16 -4 27 -11 59 -15 85 -20 130 -28 240
-129 484 -311 748 -30 43 -54 82 -54 85 1 10 64 -62 114 -128z m-405 -195 c47
-148 48 -152 70 -255 29 -139 41 -241 45 -365 1 -38 -1 -40 -31 -43 -29 -3
-33 0 -34 20 -3 90 -19 321 -24 342 -2 11 -7 39 -10 61 -19 123 -26 159 -50
257 -14 54 -36 130 -50 169 -14 40 -25 77 -25 83 1 19 76 -166 109 -269z
m-1708 93 c-47 -88 -103 -236 -136 -361 -23 -89 -27 -109 -40 -227 -20 -183
-25 -193 -67 -182 -21 5 -21 20 -2 164 18 133 82 334 150 470 32 66 122 208
131 208 2 0 -14 -33 -36 -72z m1927 -205 c59 -205 85 -331 96 -464 3 -30 6
-61 8 -69 4 -17 -32 -26 -42 -10 -4 7 -8 40 -9 74 -1 33 -4 72 -6 86 -2 14 -6
50 -10 80 -3 30 -8 64 -10 76 -3 12 -7 39 -11 60 -7 52 -54 256 -60 266 -3 4
-1 8 4 8 5 0 23 -48 40 -107z m-2110 47 c-7 -10 -14 -18 -15 -16 -6 6 9 36 18
36 5 0 4 -9 -3 -20z m-27 -67 c-8 -15 -10 -15 -11 -2 0 17 10 32 18 25 2 -3
-1 -13 -7 -23z m-36 -94 c-9 -24 -23 -75 -31 -114 -15 -69 -19 -90 -29 -170
-3 -22 -9 -67 -15 -100 -5 -33 -10 -61 -10 -63 0 -2 -4 -1 -9 2 -9 6 -9 27 3
136 11 97 35 196 68 283 31 82 50 103 23 26z m1178 -124 c-7 -21 -12 -19 -10
4 0 11 5 18 9 15 4 -3 5 -11 1 -19z m1237 -47 c22 -115 34 -276 20 -262 -5 5
-11 38 -15 74 -12 128 -15 156 -21 205 -8 65 3 54 16 -17z m-1233 7 c0 -8 -4
-15 -9 -15 -10 0 -11 14 -1 23 9 10 10 9 10 -8z m-3 -147 c-2 -50 -9 -96 -14
-102 -8 -8 -10 -2 -6 19 2 17 5 63 5 103 1 39 5 72 9 72 5 0 7 -41 6 -92z
m-1138 -441 c3 -3 6 -227 6 -499 1 -634 1 -601 -17 -594 -8 3 -15 0 -15 -7 -1
-7 -10 11 -22 38 -20 48 -21 68 -22 550 -1 275 2 505 6 512 9 11 53 11 64 0z
m2512 -719 c1 -394 -1 -723 -4 -732 -10 -25 -31 -19 -39 11 -11 47 -17 500
-16 1220 l1 231 28 -7 27 -7 3 -716z m-2341 713 c9 -1 11 -167 10 -721 -2
-395 -6 -722 -10 -726 -4 -4 -7 0 -7 9 0 9 -9 31 -19 49 -11 17 -18 35 -15 40
5 8 -54 150 -67 158 -4 3 -8 272 -8 597 l0 592 22 3 c19 3 38 2 94 -1z m204
-6 c0 -5 1 -307 2 -671 l1 -661 -45 -48 c-66 -72 -70 -75 -79 -75 -10 0 -23
19 -27 40 -8 43 -2 1414 6 1419 16 10 141 6 142 -4z m185 6 l32 -1 -2 -477
c-1 -356 -4 -484 -13 -503 -11 -23 -13 -19 -12 35 0 33 0 71 0 85 -2 42 -20 1
-26 -61 -16 -141 -40 -223 -92 -314 l-23 -40 1 635 c1 349 5 637 9 640 5 3 28
4 52 3 23 0 57 -2 74 -2z m759 -612 c2 -332 6 -659 10 -727 l6 -123 -78 3 -77
3 3 355 c2 195 4 522 5 725 l2 370 55 5 c30 3 58 2 62 -1 5 -4 10 -278 12
-610z m618 144 c-1 -436 -9 -892 -18 -938 -2 -11 -4 -28 -4 -37 -1 -12 -9 -18
-26 -18 -14 0 -25 3 -26 8 0 4 -2 331 -2 727 l-2 720 35 5 c19 3 37 4 39 3 2
-2 4 -213 4 -470z m97 296 c-2 -195 0 -756 3 -1064 l2 -220 -32 -3 -32 -3 2
730 c2 722 2 730 22 734 11 1 24 0 28 -4 5 -3 8 -80 7 -170z m122 153 c6 -23
1 -1271 -5 -1356 -3 -37 -10 -73 -15 -78 -15 -15 -42 -2 -43 19 0 10 -2 29 -4
43 -11 76 -21 962 -16 1340 l1 56 39 -4 c26 -3 41 -9 43 -20z m198 -80 c5
-117 4 -866 -1 -1155 l-4 -208 -25 3 c-18 2 -26 10 -28 28 -9 88 -13 265 -16
812 -4 569 -3 617 12 620 10 2 26 2 37 0 18 -3 21 -13 25 -100z m60 6 c0 -56
-2 -99 -5 -97 -8 9 -12 199 -3 199 4 0 8 -46 8 -102z m-1720 -20 c6 -254 5
-688 -2 -688 -5 0 -8 5 -8 11 0 5 -5 7 -11 4 -10 -7 -12 703 -2 759 10 52 21
14 23 -86z m371 -145 c0 -142 2 -471 4 -731 l5 -473 -36 3 -35 3 0 700 c0 385
1 712 1 728 0 23 4 27 30 27 l30 0 1 -257z m73 -493 c-3 -745 -2 -705 -10
-697 -19 18 -27 1366 -9 1422 9 29 9 29 16 -20 3 -27 5 -345 3 -705z m263 723
c5 -16 8 -291 7 -613 -1 -691 -3 -808 -15 -816 -5 -3 -10 3 -10 13 -1 10 -3
29 -5 43 -16 117 -25 1264 -11 1353 9 53 23 61 34 20z m135 15 c2 -7 5 -337 7
-732 l2 -719 -41 6 c-23 3 -44 8 -47 11 -6 6 -6 106 -3 949 l2 497 38 0 c22 0
40 -5 42 -12z m694 -146 c2 -81 6 -385 9 -677 3 -291 7 -550 8 -575 2 -40 0
-45 -21 -48 l-23 -4 3 649 c3 684 6 819 16 809 3 -4 7 -73 8 -154z m183 -1042
c0 -143 -5 -260 -10 -260 -5 0 -7 84 -5 188 2 103 4 220 5 260 1 39 3 72 6 72
3 0 5 -117 4 -260z m89 -1042 c2 -375 0 -693 -3 -707 -6 -25 -7 -25 -18 -6 -9
15 -12 193 -13 665 -1 693 1 759 20 740 8 -8 12 -197 14 -692z m-1427 670 c0
-13 2 -52 5 -88 6 -114 6 -1092 -1 -1180 -7 -92 -15 -110 -51 -110 l-24 0 0
200 c0 110 0 418 0 685 0 267 0 492 0 500 0 10 11 15 35 15 29 0 35 -4 36 -22z
m250 20 c18 -74 18 -1321 0 -1385 -1 -1 -29 -1 -63 0 l-63 2 -1 383 c-2 380
-11 848 -18 950 l-4 52 74 0 c41 0 74 -1 75 -2z m70 -10 c1 -7 3 -22 4 -33 29
-197 37 -1191 11 -1314 -6 -29 -15 -39 -18 -20 0 8 -3 28 -4 44 -9 79 -12
1335 -3 1335 5 0 10 -6 10 -12z m149 -687 l0 -700 -37 6 c-21 3 -40 9 -43 14
-3 4 -3 58 0 120 6 122 4 609 -4 1012 l-4 247 44 0 44 0 0 -699z m374 27 c-1
-370 -5 -684 -8 -697 -7 -32 -14 -37 -29 -22 -9 9 -13 171 -14 701 l-2 690 28
0 28 0 -3 -672z m127 660 c4 -37 6 -1365 2 -1376 -3 -7 -22 -12 -44 -12 -30 0
-39 4 -40 18 -3 52 2 1247 5 1299 2 34 7 66 11 72 9 15 65 14 66 -1z m103
-503 c-2 -658 -5 -840 -11 -865 -5 -19 -32 -29 -34 -12 -6 48 -15 1293 -10
1380 1 8 11 12 29 10 l27 -3 -1 -510z m97 477 c7 -37 9 -1280 2 -1334 -4 -32
-9 -38 -29 -38 l-24 0 -1 133 c-3 528 -1 1152 4 1199 3 31 8 62 12 68 12 19
29 5 36 -28z m102 -627 c-1 -363 -5 -679 -8 -702 -8 -54 -31 -57 -37 -5 -3 20
-6 338 -7 705 l-2 668 28 -3 28 -3 -2 -660z m79 35 c0 -659 -1 -752 -12 -769
-21 -35 -23 40 -21 734 1 303 3 568 5 590 7 85 6 83 17 55 6 -15 10 -251 11
-610z m-1286 484 c13 -268 19 -979 10 -1079 -2 -22 -5 -64 -7 -93 -1 -29 -6
-55 -11 -58 -6 -4 -10 210 -10 651 0 19 1 180 1 357 1 312 8 402 17 222z
m-442 -277 c1 -233 0 -253 -16 -249 -15 4 -17 27 -16 240 0 152 4 243 11 254
6 9 13 15 16 13 2 -3 5 -119 5 -258z m-118 150 c2 -7 3 -92 2 -190 l-3 -177
-50 24 c-84 39 -93 57 -97 185 -3 95 -1 110 12 107 55 -15 70 -15 77 -3 4 8
16 16 26 20 14 5 16 11 7 27 -9 16 -8 20 5 20 9 0 18 -6 21 -13z m-213 -146
c1 -47 -4 -48 -55 -12 -47 32 -47 41 -4 41 19 0 38 5 41 11 11 17 17 4 18 -40z
m-394 -237 l31 -7 -2 -381 -3 -381 -32 -1 c-18 0 -34 2 -34 5 -6 24 -5 771 1
771 4 0 22 -3 39 -6z m170 -50 c13 -12 11 -15 -15 -24 -19 -7 -34 -21 -41 -40
-10 -26 -9 -32 10 -45 12 -8 25 -15 30 -15 13 0 52 -52 51 -67 -1 -7 -2 -125
-3 -263 l-1 -250 -59 0 -59 0 -1 365 0 366 37 -7 c20 -3 44 -12 51 -20z m221
-81 c1 -223 -1 -617 -4 -620 -4 -4 -58 -6 -103 -4 l-33 1 0 259 c0 254 0 260
20 256 11 -2 20 0 20 6 0 5 -9 18 -20 29 -38 38 -17 65 31 40 13 -8 19 -7 19
0 0 6 -12 15 -26 20 -32 12 -24 25 24 40 20 7 41 16 47 21 19 18 25 7 25 -48z
m157 -36 l61 -62 5 -235 c3 -129 8 -245 11 -258 5 -22 4 -23 -77 -20 l-82 3
-1 321 c0 224 3 321 10 318 6 -3 39 -33 73 -67z m175 -119 c4 -12 4 -45 -2
-324 -2 -120 -19 -182 -21 -79 -6 369 -6 415 6 415 7 0 15 -6 17 -12z"/>
<path d="M1295 4358 c-2 -7 -11 -49 -21 -93 -9 -44 -22 -91 -29 -104 -10 -19
-11 -9 -7 60 3 65 1 81 -8 73 -7 -7 -14 -29 -16 -50 -29 -252 -71 -340 -259
-542 l-50 -53 -32 16 c-30 15 -35 22 -32 41 0 3 -7 17 -17 32 -9 14 -19 39
-20 55 -4 33 -58 152 -73 161 -6 4 -19 27 -30 51 -19 42 -28 50 -58 46 -7 -1
-13 5 -13 13 0 9 -8 31 -17 51 -12 25 -23 35 -40 35 -16 0 -24 7 -29 28 -4 15
-18 42 -32 60 -25 34 -38 37 -84 17 -14 -5 -18 -2 -18 14 0 28 -35 62 -56 54
-9 -3 -22 -19 -29 -36 l-12 -29 -22 36 c-23 37 -35 42 -60 27 -10 -7 -14 -30
-13 -87 l2 -78 -24 32 c-29 40 -65 72 -81 72 -7 0 -18 -7 -25 -15 -10 -12 -6
-31 23 -102 19 -49 49 -135 67 -193 18 -58 44 -129 57 -158 15 -35 22 -66 20
-90 -6 -51 8 -81 56 -124 35 -32 93 -135 82 -146 -2 -2 -38 13 -79 33 -89 43
-136 52 -191 33 -35 -12 -45 -22 -82 -92 -50 -93 -55 -116 -20 -93 35 23 83
30 121 17 36 -11 117 -92 176 -175 33 -46 180 -162 208 -164 6 -1 12 -4 12 -8
0 -14 82 -47 142 -58 13 -3 37 -8 53 -12 17 -4 35 -7 40 -7 6 -1 19 -6 29 -12
20 -12 14 -34 -9 -34 -8 0 -22 -14 -30 -31 -15 -28 -15 -32 1 -50 9 -10 21
-16 26 -13 5 4 16 -3 24 -15 22 -31 124 -72 124 -50 0 11 -33 45 -51 51 -7 2
-9 9 -5 17 6 9 21 11 47 7 44 -7 51 0 14 14 -36 14 -31 28 18 42 23 6 45 16
48 21 10 14 87 1 112 -19 12 -10 47 -42 77 -71 55 -52 173 -119 191 -108 5 4
33 -17 61 -44 29 -28 55 -51 58 -51 9 0 53 -110 47 -117 -4 -3 -40 11 -82 31
-88 42 -139 50 -190 27 -29 -13 -44 -31 -76 -90 -36 -67 -47 -101 -34 -101 3
0 16 7 29 15 28 18 81 21 117 7 35 -14 98 -78 155 -159 38 -53 67 -78 165
-142 119 -79 133 -85 288 -117 32 -7 61 -23 61 -33 0 -5 -10 -11 -23 -15 -21
-5 -47 -42 -47 -67 0 -5 12 -15 28 -21 15 -7 37 -23 49 -35 12 -13 31 -23 42
-23 11 0 23 -4 26 -10 3 -5 15 -10 26 -10 18 0 19 1 3 25 -9 14 -23 25 -30 25
-21 0 -17 28 6 35 10 3 28 1 40 -5 15 -8 20 -8 20 1 0 6 -9 13 -20 16 -27 7
-25 21 5 33 14 6 37 15 53 22 62 28 107 7 220 -101 45 -43 146 -97 174 -93 9
2 19 -2 23 -8 3 -5 20 -10 36 -10 26 0 29 2 19 19 -14 27 -14 28 22 35 31 6
31 6 12 27 -18 20 -18 21 1 31 18 10 17 12 -11 34 -16 13 -23 24 -16 24 6 0
12 7 12 15 0 8 -3 15 -7 15 -5 0 -25 15 -46 34 -21 19 -51 39 -65 44 -216 77
-203 71 -280 148 -39 41 -90 87 -112 103 -41 29 -38 41 11 41 11 0 31 7 44 16
14 9 25 13 25 10 0 -4 9 -2 21 4 13 7 18 17 15 27 -5 11 -2 14 11 8 46 -17 76
-18 85 -2 5 10 16 17 24 17 10 0 13 7 8 25 -6 24 -5 25 21 15 34 -13 48 -4 41
26 -5 19 -3 22 13 19 11 -2 22 3 25 11 3 8 0 14 -6 14 -17 0 -2 11 19 14 10 2
19 13 21 24 2 12 8 22 13 22 5 0 9 8 9 19 0 10 6 24 14 31 8 6 13 17 10 25 -3
7 -1 16 5 20 6 3 11 13 11 22 0 8 9 26 19 39 11 14 18 34 16 45 -2 12 3 32 11
45 10 14 14 34 10 48 -4 16 -1 26 9 29 19 8 31 73 15 92 -6 8 -9 23 -5 36 12
37 13 54 3 66 -6 7 -6 26 -2 45 13 53 10 63 -13 61 -19 -2 -20 1 -13 30 4 18
6 40 4 50 -3 24 -24 48 -35 41 -5 -3 -9 9 -9 26 0 39 -26 103 -39 95 -6 -3
-18 6 -27 20 -21 32 -28 22 -39 -50 -8 -57 -35 -148 -42 -141 -3 3 0 28 7 56
15 62 21 160 10 160 -5 0 -14 -26 -20 -57 -15 -75 -39 -163 -45 -163 -3 0 -3
34 0 75 4 48 2 75 -5 75 -5 0 -10 -3 -11 -7 0 -5 -2 -17 -4 -28 -2 -11 -7 -42
-10 -70 -25 -196 -84 -310 -254 -488 -30 -31 -57 -54 -60 -49 -3 4 -19 13 -34
20 -15 7 -26 16 -23 21 3 4 -4 25 -14 47 -11 21 -20 46 -20 57 0 21 -65 163
-77 168 -4 2 -17 22 -28 44 -13 26 -27 40 -39 40 -12 0 -23 11 -30 30 -21 56
-36 76 -58 73 -17 -2 -23 5 -32 34 -6 20 -21 49 -34 63 -22 26 -33 27 -73 11
-11 -5 -19 3 -30 26 -8 18 -22 34 -32 36 -23 5 -47 -15 -47 -39 0 -28 -12 -23
-38 16 -26 41 -36 43 -57 11 -12 -18 -14 -38 -9 -86 l6 -62 -49 51 c-54 55
-64 59 -84 35 -11 -13 -10 -23 6 -62 25 -64 94 -266 91 -269 -4 -5 -93 26
-146 50 -36 16 -79 50 -123 96 -38 38 -84 80 -103 93 -19 13 -34 26 -34 31 0
6 30 11 56 8 6 -1 17 6 24 14 7 8 21 15 31 15 10 0 24 9 31 19 6 10 16 18 22
16 46 -14 76 -13 76 0 0 9 9 15 21 15 18 0 20 4 15 26 -6 24 -5 25 30 18 36
-7 37 -6 32 20 -5 22 -2 26 19 26 20 0 23 4 18 20 -5 16 -2 20 14 20 14 0 21
6 21 19 0 10 7 22 16 25 8 3 12 11 9 17 -4 5 1 19 11 30 9 10 14 22 11 26 -4
3 0 15 10 25 9 10 13 21 10 24 -4 4 3 20 14 35 12 17 18 37 14 48 -3 10 1 24
10 31 9 7 15 29 15 51 0 22 4 39 10 39 15 0 24 71 12 91 -8 13 -8 26 0 49 8
23 7 37 -1 53 -8 16 -8 32 -1 57 14 48 13 53 -11 47 -19 -5 -20 -2 -14 39 6
48 -7 84 -30 84 -10 0 -15 11 -15 34 0 50 -17 89 -35 82 -10 -4 -20 3 -27 19
-9 20 -28 35 -28 23 0 -5 -19 -113 -25 -142 -6 -31 -34 -88 -34 -71 -1 6 5 33
12 60 14 53 22 165 12 165 -3 0 -7 -6 -10 -12z"/>
</g>
</svg>
