<?xml version="1.0" standalone="no"?>
<!DOCTYPE svg PUBLIC "-//W3C//DTD SVG 20010904//EN"
 "http://www.w3.org/TR/2001/REC-SVG-20010904/DTD/svg10.dtd">
<svg version="1.0" xmlns="http://www.w3.org/2000/svg"
 width="512.000000pt" height="512.000000pt" viewBox="0 0 512.000000 512.000000"
 preserveAspectRatio="xMidYMid meet">
<metadata>
Created by potrace 1.11, written by Peter Selinger 2001-2013
</metadata>
<g transform="translate(0.000000,512.000000) scale(0.100000,-0.100000)"
fill="#000000" stroke="none">
<path d="M452 5100 c-109 -29 -187 -75 -272 -160 -84 -83 -129 -160 -161 -274
-19 -69 -19 -109 -17 -1797 l3 -1725 34 -67 c95 -187 369 -382 726 -516 227
-86 562 -164 840 -196 28 -3 68 -8 90 -10 79 -10 111 -13 215 -20 58 -4 108
-9 112 -12 4 -2 34 -38 65 -81 32 -42 96 -114 142 -159 l85 -83 545 0 546 0
62 56 c74 67 159 168 228 272 l50 76 140 27 c713 142 1143 380 1220 674 13 52
15 262 15 1732 l0 1673 -149 0 -149 0 -12 -35 c-30 -92 -214 -214 -461 -305
-100 -37 -305 -94 -454 -125 -66 -14 -130 -27 -142 -30 -20 -5 -22 -2 -17 37
2 24 7 49 9 56 3 7 8 72 11 143 l7 131 -24 -12 c-13 -7 -82 -51 -154 -98 -148
-96 -262 -183 -353 -270 -61 -58 -64 -60 -130 -66 -294 -27 -835 -27 -1152 -1
-133 12 -166 15 -205 19 -22 3 -65 7 -95 11 -30 3 -70 7 -88 10 -112 15 -191
26 -217 30 -89 16 -139 25 -141 28 -1 1 -4 135 -7 297 -2 162 -7 308 -11 324
-36 148 -152 306 -279 380 -133 78 -314 104 -455 66z"/>
</g>
</svg>
