<?xml version="1.0" encoding="iso-8859-1"?>
<!-- Generator: Adobe Illustrator 22.1.0, SVG Export Plug-In . SVG Version: 6.00 Build 0)  -->
<svg xmlns="http://www.w3.org/2000/svg" xmlns:xlink="http://www.w3.org/1999/xlink" version="1.1" id="Layer_1_1_" x="0px" y="0px" viewBox="0 0 64 64" style="enable-background:new 0 0 64 64;" xml:space="preserve" width="512" height="512">
<linearGradient id="SVGID_1_" gradientUnits="userSpaceOnUse" x1="32" y1="63" x2="32" y2="1">
	<stop offset="0" style="stop-color:#9F2FFF"/>
	<stop offset="1" style="stop-color:#0BB1D3"/>
</linearGradient>
<path style="fill:url(#SVGID_1_);" d="M32,22c-2.206,0-4,1.794-4,4v4c0,2.206,1.794,4,4,4s4-1.794,4-4v-4C36,23.794,34.206,22,32,22  z M32,24c1.103,0,2,0.897,2,2v1h-4v-1C30,24.897,30.897,24,32,24z M32,32c-1.103,0-2-0.897-2-2v-1h4v1C34,31.103,33.103,32,32,32z   M58,18c0-1.654-1.346-3-3-3s-3,1.346-3,3v3h-2v-1c0-1.654-1.346-3-3-3s-3,1.346-3,3v1h-2.074C41.972,19.333,42,17.666,42,16v-0.362  l-5-6.001V8.105l8.776,0.878C45.893,8.995,46.009,9,46.125,9H46.5C48.43,9,50,7.43,50,5.5S48.43,2,46.5,2h-0.253  c-0.229,0-0.46,0.023-0.687,0.068l-9.051,1.81C35.709,2.183,33.996,1,32,1s-3.709,1.183-4.51,2.878l-9.052-1.811  C18.213,2.023,17.982,2,17.753,2H17.5C15.57,2,14,3.57,14,5.5S15.57,9,17.5,9h0.375c0.116,0,0.232-0.005,0.349-0.017L27,8.105v1.532  l-5,6.001V16c0,1.666,0.028,3.333,0.074,5H20v-1c0-1.654-1.346-3-3-3s-3,1.346-3,3v1h-2v-3c0-1.654-1.346-3-3-3s-3,1.346-3,3v3H1  v8.731l22.202,7.064c0.479,4.189,1.104,8.359,1.87,12.498L10,55.323V61h18.556c0.694,1.19,1.97,2,3.444,2s2.75-0.81,3.444-2H54  v-5.677l-15.072-6.029c0.766-4.14,1.391-8.31,1.87-12.498L63,29.731V21h-5V18z M54,18c0-0.551,0.448-1,1-1s1,0.449,1,1v3h-2V18z   M46,20c0-0.551,0.448-1,1-1s1,0.449,1,1v1h-2V20z M33.802,49h-3.604l-0.889,4H27.82l-0.31-1.546  C25.247,40.132,24.074,28.547,24.009,17H35v-2h-9.865l3.334-4h7.062l3.334,4H37v2h2.991c-0.065,11.547-1.238,23.132-3.502,34.454  L36.18,53h-1.499L33.802,49z M45.952,4.029C46.05,4.01,46.148,4,46.247,4H46.5C47.327,4,48,4.673,48,5.5S47.327,7,46.5,7h-0.375  c-0.05,0-0.1-0.002-0.149-0.007L37,6.095V6c0-0.06-0.016-0.117-0.018-0.177L45.952,4.029z M32,3c1.654,0,3,1.346,3,3v3h-6V6  C29,4.346,30.346,3,32,3z M18.024,6.993C17.975,6.998,17.925,7,17.875,7H17.5C16.673,7,16,6.327,16,5.5S16.673,4,17.5,4h0.253  c0.099,0,0.197,0.01,0.294,0.029l8.971,1.794C27.016,5.883,27,5.94,27,6v0.095L18.024,6.993z M16,20c0-0.551,0.448-1,1-1  s1,0.449,1,1v1h-2V20z M8,18c0-0.551,0.448-1,1-1s1,0.449,1,1v3H8V18z M22.149,23c0.026,0.667,0.041,1.333,0.074,2H3v-2H22.149z   M15,27v5.087l-6-1.909V27H15z M3,27h4v2.541l-4-1.273V27z M17,32.723V27h5.347c0.154,2.543,0.353,5.084,0.613,7.619L17,32.723z   M18,59v-2h-2v2h-4v-2.323l13.447-5.378c0.036,0.182,0.066,0.366,0.103,0.548L26.18,55h2.685l-0.841,3.783L28,59H18z M32,61  c-1.069,0-1.946-0.844-1.998-1.901l1.8-8.099h0.396l1.8,8.099C33.946,60.156,33.069,61,32,61z M52,56.677V59h-4v-2h-2v2H36l-0.879-4  h2.7l0.63-3.153c0.036-0.182,0.067-0.366,0.103-0.548L52,56.677z M41.654,27H47v5.723l-5.96,1.896  C41.3,32.084,41.5,29.543,41.654,27z M55,27v3.178l-6,1.909V27H55z M57,29.541V27h4v1.269L57,29.541z M61,25H41.777  c0.033-0.667,0.049-1.333,0.074-2H61V25z"/>
</svg>
