<?xml version="1.0" encoding="iso-8859-1"?>
<!-- Generator: Adobe Illustrator 22.1.0, SVG Export Plug-In . SVG Version: 6.00 Build 0)  -->
<svg xmlns="http://www.w3.org/2000/svg" xmlns:xlink="http://www.w3.org/1999/xlink" version="1.1" id="Layer_1_1_" x="0px" y="0px" viewBox="0 0 64 64" style="enable-background:new 0 0 64 64;" xml:space="preserve" width="512" height="512">
<linearGradient id="SVGID_1_" gradientUnits="userSpaceOnUse" x1="32" y1="1" x2="32" y2="63" gradientTransform="matrix(1 0 0 -1 0 64)">
	<stop offset="0" style="stop-color:#9F2FFF"/>
	<stop offset="1" style="stop-color:#0BB1D3"/>
</linearGradient>
<path style="fill:url(#SVGID_1_);" d="M36,27h3v2h-3c-1.641,0-3.088-0.806-4-2.031C31.088,28.194,29.641,29,28,29h-3v-2h3  c1.654,0,3-1.346,3-3v-1h2v1C33,25.654,34.345,27,36,27z M33,31v-1h-2v1c0,1.654-1.346,3-3,3h-3v2h3c1.641,0,3.088-0.806,4-2.031  C32.912,35.194,34.358,36,36,36h3v-2h-3C34.345,34,33,32.654,33,31z M60,17.847l-12.207,2.034c-0.238,1.718-0.682,3.399-1.374,5.012  C45.478,27.09,45,29.416,45,31.807V39c1.103,0,2,0.897,2,2v2c0,1.078-0.858,1.953-1.927,1.993c0.157,1.407,0.63,2.758,1.423,3.949  C46.831,49.446,47,50.004,47,50.579c0,1.296-0.834,2.416-2.075,2.788l-1.665,0.5c-4.039,1.212-7.141,4.354-8.299,8.408L34.754,63  h-5.509l-0.207-0.726c-1.158-4.054-4.261-7.196-8.299-8.408l-1.665-0.5C17.834,52.994,17,51.874,17,50.578  c0-0.575,0.169-1.133,0.488-1.613c0.806-1.21,1.281-2.564,1.439-3.972C17.858,44.953,17,44.078,17,43v-2c0-1.103,0.897-2,2-2v-7.192  c0-2.391-0.478-4.717-1.419-6.914c-0.684-1.596-1.125-3.257-1.365-4.956L4,18.92v-4.795c0-1.545,0.365-3.092,1.056-4.473  c1.427-2.853,4.156-4.868,7.301-5.392l1.238-0.206L16.332,2c0.86-0.645,1.926-1,3-1h4.411l0.776,2.585  c0.143,0.476,0.305,0.946,0.47,1.415h14.02c0.164-0.469,0.327-0.938,0.47-1.415L40.256,1h4.411c1.075,0,2.14,0.355,3,1l2.739,2.054  l1.238,0.206c3.145,0.524,5.874,2.54,7.301,5.392C59.634,11.033,60,12.58,60,14.125L60,17.847L60,17.847z M38.239,7H35v5.835  C36.272,11.004,37.364,9.051,38.239,7z M33,15.434V7h-2v8.434c0.327,0.382,0.656,0.762,1,1.129  C32.343,16.196,32.673,15.816,33,15.434z M25.761,7c0.875,2.051,1.967,4.004,3.239,5.835V7H25.761z M16.035,17.916  C16.026,17.674,16,17.435,16,17.192v-0.828c0-2.112-0.376-4.186-1.118-6.163l-1.53-4.08l-0.667,0.111  c-2.516,0.419-4.7,2.032-5.841,4.314c-0.401,0.802-0.661,1.675-0.775,2.566l8.041,0.893l-0.221,1.987l-7.89-0.877v1.963  L16.035,17.916z M18,16.364v0.828c0,1.285,0.149,2.55,0.423,3.788c3.222-0.21,5.89-2.783,6.162-6.038l0.406-4.876  C24.018,8.178,23.216,6.2,22.604,4.16L22.256,3h-2.922c-0.645,0-1.285,0.213-1.801,0.6L15.2,5.35l1.556,4.148  C17.58,11.701,18,14.011,18,16.364z M19,43h7v-2h-7V43z M45,50.578c0-0.18-0.053-0.354-0.154-0.506  c-1.025-1.537-1.63-3.269-1.795-5.072h-5.329c-0.347,0.595-0.985,1-1.722,1h-8c-0.737,0-1.375-0.405-1.722-1h-5.329  c-0.165,1.802-0.769,3.532-1.781,5.051C19.052,50.224,19,50.399,19,50.578c0,0.405,0.261,0.756,0.649,0.872l1.666,0.5  c4.45,1.336,7.923,4.689,9.419,9.05h2.532c1.496-4.36,4.969-7.714,9.419-9.05l1.665-0.5C44.739,51.334,45,50.983,45,50.578z   M36.001,44L36,40h-8v4H36.001z M38,43h7v-2h-7V43z M45.014,22.936c-4-0.468-7.251-3.735-7.592-7.829l-0.17-2.042  c-1.316,2.028-2.831,3.928-4.545,5.642L32,19.414l-0.707-0.707c-1.714-1.714-3.229-3.614-4.545-5.642l-0.17,2.042  c-0.341,4.094-3.592,7.361-7.592,7.829c0.136,0.392,0.268,0.785,0.433,1.17C20.468,26.553,21,29.145,21,31.808V39h5.278  c0.347-0.595,0.985-1,1.722-1h8c0.737,0,1.375,0.405,1.722,1H43v-7.192c0-2.664,0.532-5.255,1.581-7.702  C44.746,23.721,44.878,23.328,45.014,22.936z M47.244,9.499L48.8,5.351L46.466,3.6C45.95,3.213,45.312,3,44.666,3h-2.922  l-0.348,1.16c-0.612,2.04-1.414,4.017-2.387,5.905l0.406,4.876c0.271,3.255,2.94,5.828,6.162,6.038  c0.274-1.238,0.423-2.502,0.423-3.788v-0.828C46,14.011,46.419,11.701,47.244,9.499z M58,16.153v-1.906l-7.783,1.73l-0.434-1.952  l7.99-1.776c-0.142-0.588-0.348-1.161-0.618-1.701c-1.141-2.282-3.325-3.895-5.841-4.314l-0.667-0.111l-1.53,4.08  c-0.742,1.977-1.118,4.051-1.118,6.163v0.828c0,0.213-0.025,0.421-0.032,0.633L58,16.153z"/>
</svg>
