<?xml version="1.0" encoding="iso-8859-1"?>
<!-- Generator: Adobe Illustrator 22.1.0, SVG Export Plug-In . SVG Version: 6.00 Build 0)  -->
<svg xmlns="http://www.w3.org/2000/svg" xmlns:xlink="http://www.w3.org/1999/xlink" version="1.1" id="Layer_1_1_" x="0px" y="0px" viewBox="0 0 64 64" style="enable-background:new 0 0 64 64;" xml:space="preserve" width="512" height="512">
<linearGradient id="SVGID_1_" gradientUnits="userSpaceOnUse" x1="32" y1="63" x2="32" y2="1">
	<stop offset="0" style="stop-color:#9F2FFF"/>
	<stop offset="1" style="stop-color:#0BB1D3"/>
</linearGradient>
<path style="fill:url(#SVGID_1_);" d="M24,4c0-1.654-1.346-3-3-3c-0.641,0-1.233,0.206-1.721,0.55C18.9,1.212,18.407,1,17.86,1  c-0.951,0-1.798,0.638-2.059,1.552c-1.098,3.842-3.312,7.21-6.403,9.74l-1.901,1.556C4.639,16.185,3,19.644,3,23.336  C3,26.608,4.273,29.685,6.586,32C4.273,34.315,3,37.392,3,40.664c0,3.692,1.639,7.151,4.497,9.489l1.901,1.556  c3.091,2.528,5.306,5.896,6.403,9.738C16.063,62.361,16.909,63,17.86,63c0.546,0,1.04-0.212,1.419-0.55  C19.767,62.794,20.359,63,21,63c1.654,0,3-1.346,3-3c0-1.302-0.839-2.402-2-2.816V6.816C23.161,6.402,24,5.302,24,4z M19.674,57.323  c-0.71-3.988-2.601-7.663-5.525-10.587l-0.824-0.824C11.848,44.434,11,42.387,11,40.297c0-2.425,1.086-4.686,2.98-6.2  c0.64-0.513,1.007-1.276,1.007-2.096c0-0.82-0.366-1.584-1.007-2.097c-1.895-1.515-2.98-3.774-2.98-6.2  c0-2.12,0.826-4.114,2.325-5.614l0.824-0.824c2.924-2.924,4.815-6.599,5.525-10.587C19.78,6.73,19.888,6.776,20,6.816v50.369  C19.888,57.224,19.78,57.27,19.674,57.323z M21,3c0.552,0,1,0.449,1,1s-0.448,1-1,1s-1-0.449-1-1S20.448,3,21,3z M17.726,60.898  c-1.211-4.236-3.652-7.95-7.062-10.738l-1.901-1.556C6.372,46.648,5,43.754,5,40.664c0-2.74,1.067-5.317,3.005-7.255L9.414,32  l-1.409-1.409C6.067,28.653,5,26.077,5,23.336c0-3.09,1.372-5.984,3.763-7.941l1.901-1.556c3.409-2.789,5.851-6.502,7.062-10.738  C17.742,3.042,17.798,3,17.86,3C17.938,3,18,3.063,18,3.14c0,4.801-1.87,9.315-5.265,12.71l-0.824,0.824  C10.034,18.553,9,21.049,9,23.703c0,3.037,1.359,5.866,3.73,7.762c0.224,0.179,0.257,0.412,0.257,0.535s-0.033,0.356-0.257,0.535  C10.359,34.432,9,37.261,9,40.297c0,2.655,1.034,5.151,2.911,7.028l0.824,0.824C16.13,51.545,18,56.059,18,60.86  C17.999,61,17.763,61.031,17.726,60.898z M21,61c-0.552,0-1-0.448-1-1s0.448-1,1-1s1,0.448,1,1S21.552,61,21,61z M58.069,22.301  L57,20.697V19c0-1.103-0.897-2-2-2h-1.867l0.817-6.536L57,7.414V1h-2.414L53,2.586L51.414,1H49v6.414l2.947,2.947L51.117,17H45  v-6.586l3-3V1h-2.414L44,2.586L42.414,1H40v6.414l3,3V17h-6.117l-0.83-6.639L39,7.414V1h-2.414L35,2.586L33.414,1H31v6.414  l3.05,3.05L34.867,17H33c-1.103,0-2,0.897-2,2v4c0,1.103,0.897,2,2,2v2v3v21.586l-2.465,2.465C29.545,55.041,29,56.357,29,57.758  C29,60.648,31.352,63,34.295,63c0.337,0,0.669-0.033,0.993-0.095C35.517,62.962,35.753,63,36,63h16c1.654,0,3-1.346,3-3V45.175  l0.623-0.597C59.04,41.305,61,36.713,61,31.98C61,28.523,59.986,25.177,58.069,22.301z M51,3.414l2,2l2-2v3.172l-2,2l-2-2V3.414z   M42,3.414l2,2l2-2v3.172l-2,2l-2-2V3.414z M33,3.414l2,2l2-2v3.172l-2,2l-2-2V3.414z M33,19h22l0.001,4H33V19z M35,25h18v2H35V25z   M35.417,60.79C35.171,60.608,35,60.33,35,60V32.816C35.314,32.928,35.648,33,36,33c0.768,0,1.469-0.29,2-0.766  C38.531,32.71,39.232,33,40,33s1.469-0.29,2-0.766C42.531,32.71,43.232,33,44,33s1.469-0.29,2-0.766C46.531,32.71,47.232,33,48,33  s1.469-0.29,2-0.766C50.531,32.71,51.232,33,52,33c0.352,0,0.686-0.072,1-0.184v11.507L36.538,60.099  C36.215,60.409,35.835,60.638,35.417,60.79z M35,30v-1h2v1c0,0.551-0.448,1-1,1S35,30.551,35,30z M39,30v-1h2v1c0,0.551-0.448,1-1,1  S39,30.551,39,30z M43,30v-1h2v1c0,0.551-0.448,1-1,1S43,30.551,43,30z M47,30v-1h2v1c0,0.551-0.448,1-1,1S47,30.551,47,30z M53,30  c0,0.551-0.448,1-1,1s-1-0.449-1-1v-1h2V30z M31,57.758c0-0.866,0.337-1.681,0.949-2.293L33,54.414V60  c0,0.274,0.049,0.535,0.118,0.787C31.885,60.328,31,59.149,31,57.758z M53,60c0,0.552-0.448,1-1,1H38.488L53,47.092V60z M55,42.327  V30v-3v-2c0.753,0,1.402-0.423,1.743-1.04C58.216,26.38,59,29.136,59,31.98C59,35.8,57.546,39.504,55,42.327z"/>
</svg>
