<?xml version="1.0" encoding="iso-8859-1"?>
<!-- Generator: Adobe Illustrator 22.1.0, SVG Export Plug-In . SVG Version: 6.00 Build 0)  -->
<svg xmlns="http://www.w3.org/2000/svg" xmlns:xlink="http://www.w3.org/1999/xlink" version="1.1" id="Layer_1_1_" x="0px" y="0px" viewBox="0 0 64 64" style="enable-background:new 0 0 64 64;" xml:space="preserve" width="512" height="512">
<linearGradient id="SVGID_1_" gradientUnits="userSpaceOnUse" x1="32" y1="63" x2="32" y2="1">
	<stop offset="0" style="stop-color:#9F2FFF"/>
	<stop offset="1" style="stop-color:#0BB1D3"/>
</linearGradient>
<path style="fill:url(#SVGID_1_);" d="M31,41h-2c-1.103,0-2,0.897-2,2h-6V11h2V5h-2c0-2.206-1.794-4-4-4s-4,1.794-4,4h-2v6h2v32H7  c0-1.103-0.897-2-2-2H3c-1.103,0-2,0.897-2,2v18c0,1.103,0.897,2,2,2h2c1.103,0,2-0.897,2-2h20c0,1.103,0.897,2,2,2h2  c1.103,0,2-0.897,2-2V43C33,41.897,32.103,41,31,41z M5,61H3V43h2V61z M19,27.414v2.172l-4-4v-2.172L19,27.414z M15,20.586v-3.172  l4,4v3.172L15,20.586z M19,32.414v3.172l-4-4v-3.172L19,32.414z M19,18.586l-4-4v-2.172l4,4V18.586z M15,34.414l4,4v2.172l-4-4  V34.414z M19,13.586L16.414,11H19V13.586z M17,3c1.103,0,2,0.897,2,2h-4C15,3.897,15.897,3,17,3z M13,7h8v2h-8V7z M15,39.414  L18.586,43H15V39.414z M7,59V45h20v14H7z M31,61h-2V43h2V61z M22,51h-2.184c-0.302-0.847-0.969-1.514-1.816-1.816V47h-2v2.184  c-0.847,0.302-1.514,0.969-1.816,1.816H12v2h2.184c0.302,0.847,0.969,1.514,1.816,1.816V57h2v-2.184  c0.847-0.302,1.514-0.969,1.816-1.816H22V51z M17,53c-0.552,0-1-0.448-1-1s0.448-1,1-1s1,0.448,1,1S17.552,53,17,53z M58.246,1.565  L55,4c-3.172,2.379-7.045,3.757-11,3.959V7V6c0-2.206-1.794-4-4-4s-4,1.794-4,4v1v17h1v29h-2v6h2v1c0,1.654,1.346,3,3,3s3-1.346,3-3  v-1h2v-6h-2V24h1v-1.959c3.955,0.202,7.828,1.58,11,3.959l3.246,2.435l1.258-1.888C61.791,23.116,63,19.123,63,15  s-1.209-8.116-3.496-11.547L58.246,1.565z M38,22V8h4v14H38z M40,4c1.103,0,2,0.897,2,2h-4C38,4.897,38.897,4,40,4z M41,60  c0,0.552-0.448,1-1,1s-1-0.448-1-1v-1h2V60z M43,57h-6v-2h6V57z M41,53h-2V24h2V53z M44,9.959c3.944-0.183,7.81-1.437,11.106-3.607  C56.346,9.023,57,11.99,57,15.008c0,3.013-0.652,5.977-1.889,8.644C51.814,21.48,47.946,20.224,44,20.041V9.959z M57.84,25.438  l-0.086,0.128l-0.992-0.743C58.223,21.807,59,18.436,59,15.008c0-3.433-0.78-6.807-2.244-9.826l0.998-0.748l0.086,0.128  C59.907,7.664,61,11.272,61,15S59.907,22.336,57.84,25.438z"/>
</svg>
