<?xml version="1.0" encoding="iso-8859-1"?>
<!-- Generator: Adobe Illustrator 22.1.0, SVG Export Plug-In . SVG Version: 6.00 Build 0)  -->
<svg xmlns="http://www.w3.org/2000/svg" xmlns:xlink="http://www.w3.org/1999/xlink" version="1.1" id="Layer_1_1_" x="0px" y="0px" viewBox="0 0 64 64" style="enable-background:new 0 0 64 64;" xml:space="preserve" width="512" height="512">
<linearGradient id="SVGID_1_" gradientUnits="userSpaceOnUse" x1="32" y1="1" x2="32" y2="63" gradientTransform="matrix(1 0 0 -1 0 64)">
	<stop offset="0" style="stop-color:#9F2FFF"/>
	<stop offset="1" style="stop-color:#0BB1D3"/>
</linearGradient>
<path style="fill:url(#SVGID_1_);" d="M60.742,3.171l-1.414-1.414L57.5,3.586V1h-2v2.586l-1.828-1.829l-1.414,1.414L54.086,5H45.5  c-3.859,0-7,3.14-7,7v9h-6c-1.103,0-2,0.897-2,2v4.298c-6.181,3.328-10,9.665-10,16.702c0,10.477,8.523,19,19,19s19-8.523,19-19  c0-7.036-3.819-13.373-10-16.702V23c0-1.103-0.897-2-2-2h-6v-9c0-2.757,2.243-5,5-5h8.586l-1.828,1.829l1.414,1.414L55.5,8.414V11h2  V8.414l1.828,1.829l1.414-1.414L58.914,7H61.5V5h-2.586L60.742,3.171z M56.5,44c0,9.374-7.626,17-17,17s-17-7.626-17-17  c0-6.335,3.461-12.037,9.054-15h15.892C53.039,31.963,56.5,37.665,56.5,44z M46.5,26.278V27h-14v-0.722V23h14V26.278z M58.5,5.172  v1.656L57.328,8h-1.656L54.5,6.828V5.172L55.672,4h1.656L58.5,5.172z M30.5,5h-2.586l1.828-1.829l-1.414-1.414L26.5,3.586V1h-2  v2.586l-1.828-1.829l-1.414,1.414L23.086,5H16.5c-3.859,0-7,3.14-7,7v4h-7v47h16V16h-7v-4c0-2.757,2.243-5,5-5h6.586l-1.828,1.829  l1.414,1.414L24.5,8.414V11h2V8.414l1.828,1.829l1.414-1.414L27.914,7H30.5V5z M16.5,22h-2v2h2v37h-12V24h8v-2h-8v-4h12V22z   M27.5,5.172v1.656L26.328,8h-1.656L23.5,6.828V5.172L24.672,4h1.656L27.5,5.172z M30.215,34.902l-1.43-1.399  c0.447-0.457,0.93-0.89,1.435-1.288l1.238,1.57C31.021,34.13,30.603,34.506,30.215,34.902z M39.5,57v2c-8.271,0-15-6.729-15-15  c0-3.086,0.93-6.05,2.689-8.572l1.641,1.145C27.306,38.757,26.5,41.325,26.5,44C26.5,51.168,32.332,57,39.5,57z M6.5,26h2v2h-2V26z   M6.5,30h2v17h-2V30z"/>
</svg>
