<?xml version="1.0" encoding="iso-8859-1"?>
<!-- Generator: Adobe Illustrator 22.1.0, SVG Export Plug-In . SVG Version: 6.00 Build 0)  -->
<svg xmlns="http://www.w3.org/2000/svg" xmlns:xlink="http://www.w3.org/1999/xlink" version="1.1" id="Layer_1_1_" x="0px" y="0px" viewBox="0 0 64 64" style="enable-background:new 0 0 64 64;" xml:space="preserve" width="512" height="512">
<linearGradient id="SVGID_1_" gradientUnits="userSpaceOnUse" x1="32" y1="63" x2="32" y2="1">
	<stop offset="0" style="stop-color:#9F2FFF"/>
	<stop offset="1" style="stop-color:#0BB1D3"/>
</linearGradient>
<path style="fill:url(#SVGID_1_);" d="M31,57h2v2h-2V57z M31,50c0-0.551,0.448-1,1-1s1,0.449,1,1s-0.448,1-1,1h-1v4h2v-2.171  c1.164-0.413,2-1.525,2-2.829c0-1.654-1.346-3-3-3s-3,1.346-3,3H31z M17,2V1h3c6.065,0,11,4.935,11,11v1v13v1v16h2v-2v-1V18v-1  c0-6.065,4.935-11,11-11h3v1c0,6.065-4.935,11-11,11h-1v16.356C36.651,32.312,39.174,31,42,31h3v1c0,4.962-4.037,9-9,9h-1v2h20v20H9  V43h20V27h-1c-4.963,0-9-4.038-9-9v-1h3c2.826,0,5.349,1.312,7,3.356V13h-1C21.935,13,17,8.065,17,2z M28.929,25  c-0.486-3.388-3.408-6-6.929-6h-0.929c0.486,3.388,3.408,6,6.929,6H28.929z M35.071,39H36c3.521,0,6.442-2.612,6.929-6H42  C38.479,33,35.558,35.612,35.071,39z M35.056,16H36c4.625,0,8.445-3.506,8.944-8H44C39.375,8,35.555,11.506,35.056,16z M43,55h2v-4  h-2V55z M43,61h6v-4h-6V61z M53,55v-4h-6v4H53z M49,49v-4h-6v4H49z M41,45H23v16h18V45z M21,51h-2v4h2V51z M21,45h-6v4h6V45z M11,51  v4h6v-4H11z M15,57v4h6v-4H15z M11,45v4h2v-4H11z M11,61h2v-4h-2V61z M53,61v-4h-2v4H53z M53,45h-2v4h2V45z M19.056,3  c0.499,4.494,4.319,8,8.944,8h0.944C28.445,6.506,24.625,3,20,3H19.056z M1,13c0-2.006,1.484-3.671,3.412-3.957  C5.186,7.219,6.978,6,9,6s3.814,1.219,4.588,3.043C15.516,9.329,17,10.994,17,13c0,2.206-1.794,4-4,4H5C2.794,17,1,15.206,1,13z   M3,13c0,1.103,0.897,2,2,2h8c1.103,0,2-0.897,2-2s-0.897-2-2-2c0.013,0.004-0.04,0.01-0.094,0.013l-0.812,0.035l-0.2-0.786  C11.555,8.93,10.364,8,9,8s-2.555,0.93-2.895,2.261l-0.2,0.786l-0.971-0.05C3.897,11,3,11.897,3,13z M63,22c0,2.206-1.794,4-4,4h-8  c-2.206,0-4-1.794-4-4c0-2.006,1.484-3.671,3.412-3.957C51.186,16.219,52.978,15,55,15s3.814,1.219,4.588,3.043  C61.516,18.329,63,19.994,63,22z M61,22c0-1.103-0.897-2-2-2c0.013,0.004-0.04,0.01-0.094,0.013l-0.812,0.035l-0.2-0.786  C57.555,17.93,56.364,17,55,17s-2.555,0.93-2.895,2.261l-0.2,0.786l-0.971-0.05C49.897,20,49,20.897,49,22s0.897,2,2,2h8  C60.103,24,61,23.103,61,22z M13,39c-2.206,0-4-1.794-4-4c0-2.006,1.484-3.671,3.412-3.957C13.186,29.219,14.978,28,17,28  s3.814,1.219,4.588,3.043C23.516,31.329,25,32.994,25,35c0,2.206-1.794,4-4,4H13z M13,37h8c1.103,0,2-0.897,2-2s-0.897-2-2-2  c0.013,0.004-0.04,0.01-0.094,0.013l-0.812,0.035l-0.2-0.786C19.555,30.93,18.364,30,17,30s-2.555,0.93-2.895,2.261l-0.2,0.786  l-0.971-0.05C11.897,33,11,33.897,11,35S11.897,37,13,37z"/>
</svg>
