<?xml version="1.0" encoding="iso-8859-1"?>
<!-- Generator: Adobe Illustrator 22.1.0, SVG Export Plug-In . SVG Version: 6.00 Build 0)  -->
<svg xmlns="http://www.w3.org/2000/svg" xmlns:xlink="http://www.w3.org/1999/xlink" version="1.1" id="Layer_1_1_" x="0px" y="0px" viewBox="0 0 64 64" style="enable-background:new 0 0 64 64;" xml:space="preserve" width="512" height="512">
<linearGradient id="SVGID_1_" gradientUnits="userSpaceOnUse" x1="32" y1="63" x2="32" y2="1">
	<stop offset="0" style="stop-color:#9F2FFF"/>
	<stop offset="1" style="stop-color:#0BB1D3"/>
</linearGradient>
<path style="fill:url(#SVGID_1_);" d="M26.434,29L30,34.943L33.566,29h7.2l-3.6-6l3.6-6h-7.2L30,11.057L26.434,17h-7.2l3.6,6l-3.6,6  H26.434z M30,31.057L28.766,29h2.468L30,31.057z M27.566,27l-2.4-4l2.4-4h4.868l2.4,4l-2.4,4H27.566z M37.234,27h-2.468L36,24.943  L37.234,27z M37.234,19L36,21.057L34.766,19H37.234z M30,14.943L31.234,17h-2.468L30,14.943z M22.766,19h2.468L24,21.057L22.766,19z   M25.234,27h-2.468L24,24.943L25.234,27z M16,7v39h28V7H16z M42,44H18V9h24V44z M29,38h2v2h-2V38z M34,38h2v2h-2V38z M24,38h2v2h-2  V38z M61,7.414C61,6.083,59.917,5,58.586,5H52V1H9C5.691,1,3,3.691,3,7v50c0,3.309,2.691,6,6,6h43v-1.918l-0.801-0.162  C49.345,60.543,48,58.895,48,57s1.345-3.543,3.199-3.92L52,52.918V52v-1V17h6.586C59.917,17,61,15.917,61,14.586  c0-0.637-0.258-1.259-0.707-1.707L58.414,11l1.878-1.878C60.742,8.673,61,8.051,61,7.414z M8,3.142V6.09  C6.858,6.283,5.827,6.798,5,7.54V7C5,5.141,6.28,3.589,8,3.142z M8,8.142v2.948c-1.142,0.193-2.173,0.708-3,1.45V12  C5,10.141,6.28,8.589,8,8.142z M8,13.142v2.948c-1.142,0.193-2.173,0.708-3,1.45V17C5,15.141,6.28,13.589,8,13.142z M8,18.142v2.948  c-1.142,0.193-2.173,0.708-3,1.45V22C5,20.141,6.28,18.589,8,18.142z M8,23.142v2.948c-1.142,0.193-2.173,0.708-3,1.45V27  C5,25.141,6.28,23.589,8,23.142z M8,28.142v2.948c-1.142,0.193-2.173,0.708-3,1.45V32C5,30.141,6.28,28.589,8,28.142z M8,33.142  v2.948c-1.142,0.193-2.173,0.708-3,1.45V37C5,35.141,6.28,33.589,8,33.142z M8,38.142v2.948c-1.142,0.193-2.173,0.708-3,1.45V42  C5,40.141,6.28,38.589,8,38.142z M8,43.142v2.948c-1.142,0.193-2.173,0.708-3,1.45V47C5,45.141,6.28,43.589,8,43.142z M8,48.142  v2.948c-1.142,0.193-2.173,0.708-3,1.45V52C5,50.141,6.28,48.589,8,48.142z M46.094,56H11v2h35.094c0.193,1.13,0.696,2.168,1.44,3H9  c-2.206,0-4-1.794-4-4s1.794-4,4-4h38.534C46.79,53.832,46.287,54.87,46.094,56z M10,51V3h40v48H10z M58.879,7.707L55.586,11  l3.293,3.294C58.956,14.37,59,14.477,59,14.586C59,14.814,58.814,15,58.586,15H52V7h6.586C58.814,7,59,7.186,59,7.414  C59,7.523,58.956,7.63,58.879,7.707z M7,56h2v2H7V56z"/>
</svg>
