<?xml version="1.0" encoding="iso-8859-1"?>
<!-- Generator: Adobe Illustrator 22.1.0, SVG Export Plug-In . SVG Version: 6.00 Build 0)  -->
<svg xmlns="http://www.w3.org/2000/svg" xmlns:xlink="http://www.w3.org/1999/xlink" version="1.1" id="Layer_1_1_" x="0px" y="0px" viewBox="0 0 64 64" style="enable-background:new 0 0 64 64;" xml:space="preserve" width="512" height="512">
<linearGradient id="SVGID_1_" gradientUnits="userSpaceOnUse" x1="32.5095" y1="63" x2="32.5095" y2="0.9785">
	<stop offset="0" style="stop-color:#9F2FFF"/>
	<stop offset="1" style="stop-color:#0BB1D3"/>
</linearGradient>
<path style="fill:url(#SVGID_1_);" d="M16,63c2.785,0,5.189-1.639,6.315-4h9.37c1.126,2.361,3.53,4,6.315,4s5.189-1.639,6.315-4H48  c1.654,0,3-1.346,3-3s-1.346-3-3-3h-3.685c-1.126-2.361-3.53-4-6.315-4s-5.189,1.639-6.315,4H31v-8c0-0.027-0.007-0.052-0.008-0.079  L44.463,29h0.951L49,25.414v-1.828L38.414,13h-1.828L33,16.586v0.925L13,33.067V18c0-1.654-1.346-3-3-3s-3,1.346-3,3v11  c0,0.552-0.449,1-1,1s-1-0.448-1-1V15H3v14c0,1.654,1.346,3,3,3s3-1.346,3-3V18c0-0.552,0.449-1,1-1s1,0.448,1,1v16.623  l-0.725,0.564C7.558,37.299,6,40.484,6,43.927c0,3.3,1.484,6.4,3.995,8.495C9.883,52.609,9.78,52.802,9.685,53H6  c-1.654,0-3,1.346-3,3s1.346,3,3,3h3.685C10.811,61.361,13.215,63,16,63z M16,61c-2.757,0-5-2.243-5-5s2.243-5,5-5s5,2.243,5,5  S18.757,61,16,61z M37.143,34.557l-7.034,8.313C29.566,42.333,28.822,42,28,42h-9.928c-1.968-2.194-3.06-4.998-3.07-7.957  l12.165-9.461L37.143,34.557z M28.758,23.344l5.159-4.013l8.726,8.726l-4.204,4.968L28.758,23.344z M48,55c0.551,0,1,0.448,1,1  s-0.449,1-1,1h-3.08c0.047-0.328,0.08-0.66,0.08-1s-0.033-0.672-0.08-1H48z M38,51c2.757,0,5,2.243,5,5s-2.243,5-5,5s-5-2.243-5-5  S35.243,51,38,51z M31.08,57h-8.16c0.047-0.328,0.08-0.66,0.08-1s-0.033-0.672-0.08-1h8.16C31.033,55.328,31,55.66,31,56  S31.033,56.672,31.08,57z M22.315,53c-0.989-2.072-2.962-3.581-5.315-3.92V45c0-0.552,0.449-1,1-1h10c0.551,0,1,0.448,1,1v8H22.315z   M35,17.414L37.414,15h0.172L47,24.414v0.172L44.586,27h-0.172L35,17.586V17.414z M8,43.927c0-2.82,1.277-5.431,3.502-7.162  l1.588-1.235c0.287,2.639,1.308,5.125,2.969,7.201C15.417,43.282,15,44.089,15,45v4.08c-1.436,0.207-2.73,0.849-3.748,1.791  C9.208,49.154,8,46.621,8,43.927z M6,57c-0.551,0-1-0.448-1-1s0.449-1,1-1h3.08C9.033,55.328,9,55.66,9,56s0.033,0.672,0.08,1H6z   M16,53c-1.654,0-3,1.346-3,3s1.346,3,3,3s3-1.346,3-3S17.654,53,16,53z M16,57c-0.551,0-1-0.448-1-1s0.449-1,1-1s1,0.448,1,1  S16.551,57,16,57z M38,59c1.654,0,3-1.346,3-3s-1.346-3-3-3s-3,1.346-3,3S36.346,59,38,59z M38,55c0.551,0,1,0.448,1,1s-0.449,1-1,1  s-1-0.448-1-1S37.449,55,38,55z M35,25h2v2h-2V25z M40,28v2h-2v-2H40z M32,22h2v2h-2V22z M23,45c-1.654,0-3,1.346-3,3s1.346,3,3,3  s3-1.346,3-3S24.654,45,23,45z M23,49c-0.551,0-1-0.448-1-1s0.449-1,1-1s1,0.448,1,1S23.551,49,23,49z M53.447,13.895l-0.895-1.789  c2.28-1.14,3.943-3.213,4.562-5.687l0.511-2.045l-2.044,0.511c-2.474,0.619-4.546,2.281-5.687,4.562l-1.789-0.895  c1.402-2.804,3.95-4.848,6.99-5.607l5.279-1.319l-1.32,5.277C58.294,9.944,56.25,12.493,53.447,13.895z M46.601,5.096  c-0.372,1.858-0.251,3.791,0.348,5.588l-1.897,0.633c-0.647-1.942-0.822-4.018-0.513-6.037c-1.819,1.638-3.046,3.852-3.456,6.309  l-0.096,0.577l-1.973-0.33l0.096-0.576c0.622-3.735,2.842-6.996,6.091-8.945l2.223-1.335L46.601,5.096z M57.905,15.399l4.114-0.823  l-1.332,2.223c-1.949,3.248-5.21,5.469-8.946,6.092l-0.577,0.096l-0.328-1.973l0.576-0.096c2.458-0.41,4.672-1.638,6.309-3.456  c-2.02,0.311-4.095,0.135-6.038-0.514l0.633-1.896C54.114,15.65,56.046,15.771,57.905,15.399z M49.707,13.707l-1.414-1.414l3-3  l1.414,1.414L49.707,13.707z M45.707,17.707l-1.414-1.414l3-3l1.414,1.414L45.707,17.707z M47,42h-2v-2h2V42z M51,42h-2v-2h2V42z   M55,42h-2v-2h2V42z M41,46v-2h2v2H41z M45,44h2v2h-2V44z M49,44h2v2h-2V44z M11,8H9V6h2V8z M15,8h-2V6h2V8z M17,6h2v2h-2V6z M5,10  h2v2H5V10z M9,10h2v2H9V10z M13,10h2v2h-2V10z"/>
</svg>
