<?xml version="1.0" encoding="iso-8859-1"?>
<!-- Generator: Adobe Illustrator 22.1.0, SVG Export Plug-In . SVG Version: 6.00 Build 0)  -->
<svg xmlns="http://www.w3.org/2000/svg" xmlns:xlink="http://www.w3.org/1999/xlink" version="1.1" id="Layer_1_1_" x="0px" y="0px" viewBox="0 0 64 64" style="enable-background:new 0 0 64 64;" xml:space="preserve" width="512" height="512">
<linearGradient id="SVGID_1_" gradientUnits="userSpaceOnUse" x1="32" y1="1" x2="32" y2="63" gradientTransform="matrix(1 0 0 -1 0 64)">
	<stop offset="0" style="stop-color:#9F2FFF"/>
	<stop offset="1" style="stop-color:#0BB1D3"/>
</linearGradient>
<path style="fill:url(#SVGID_1_);" d="M45,56h2v2h-2V56z M41,56h2v-2h-2V56z M56.39,10.458l6.709,14.536L50.037,54.13  c1.633,1.873,2.695,4.251,2.912,6.87H59v2H5v-2h6.051c0.218-2.619,1.279-4.997,2.912-6.87L0.901,24.994L7.61,10.458l13.341,10.005  l2.958,29.583c0.654,0.049,1.291,0.152,1.911,0.303L21.961,13.69L32,1.421L42.037,13.69l-3.858,36.65  c0.623-0.151,1.263-0.235,1.909-0.284l2.959-29.592L56.39,10.458z M55.61,13.542l-10.236,7.677l5.932,8.474l9.394-5.124  L55.61,13.542z M42.099,50.056c2.413,0.221,4.62,1.158,6.409,2.598L59.873,27.3l-8.018,4.374l-3.889,14.585l-1.932-0.516  l3.88-14.549l-5.187-7.411L42.099,50.056z M32,4.579l-7.577,9.26L32,19.733l7.577-5.893L32,4.579z M27.906,51.06  c1.137,0.512,2.177,1.198,3.094,2.021V38h2v15.069c0.924-0.826,1.97-1.489,3.092-1.994l3.667-34.843L33,21.489V36h-2V21.489  l-6.76-5.257L27.906,51.06z M19.272,23.782l-5.187,7.411l3.88,14.549l-1.932,0.516l-3.889-14.585l-8.018-4.374l11.365,25.354  c1.789-1.44,3.995-2.377,6.409-2.598L19.272,23.782z M3.3,24.57l9.394,5.124l5.932-8.474L8.39,13.543L3.3,24.57z M13.05,61H32.95  c-0.504-5.046-4.773-9-9.949-9S13.554,55.954,13.05,61z M50.949,61c-0.504-5.046-4.773-9-9.949-9c-3.032,0-5.886,1.396-7.779,3.744  c0.956,1.556,1.569,3.34,1.729,5.256H50.949z M5,5H3v2h2V5z M3,7H1v2h2V7z M3,11h2V9H3V11z M7,9V7H5v2H7z M25,1h-2v2h2V1z M21,3v2h2  V3H21z M25,7V5h-2v2H25z M27,5V3h-2v2H27z M61,4h-2v2h2V4z M57,6v2h2V6H57z M61,10V8h-2v2H61z M63,8V6h-2v2H63z M61,63h2v-2h-2V63z   M1,61v2h2v-2H1z"/>
</svg>
