<?xml version="1.0" encoding="iso-8859-1"?>
<!-- Generator: Adobe Illustrator 22.1.0, SVG Export Plug-In . SVG Version: 6.00 Build 0)  -->
<svg xmlns="http://www.w3.org/2000/svg" xmlns:xlink="http://www.w3.org/1999/xlink" version="1.1" id="Layer_1_1_" x="0px" y="0px" viewBox="0 0 64 64" style="enable-background:new 0 0 64 64;" xml:space="preserve" width="512" height="512">
<linearGradient id="SVGID_1_" gradientUnits="userSpaceOnUse" x1="32" y1="63" x2="32" y2="1">
	<stop offset="0" style="stop-color:#9F2FFF"/>
	<stop offset="1" style="stop-color:#0BB1D3"/>
</linearGradient>
<path style="fill:url(#SVGID_1_);" d="M25,30c0.683,0,1.372-0.068,2.059-0.171c0.159,0.183,0.342,0.344,0.539,0.491  c0.344,0.65,0.82,1.213,1.402,1.654v14.043C26.136,40.658,20.489,37,14,37H9v1c0,9.374,7.626,17,17,17h3v6H5v2h28h5h21v-2H45.983  C51.342,58.136,55,52.489,55,46v-1h-5c-6.489,0-12.136,3.658-15,9.017V31.974c0.582-0.441,1.058-1.004,1.402-1.654  c0.197-0.147,0.38-0.308,0.539-0.492C37.628,29.932,38.317,30,39,30c7.72,0,14-6.28,14-14c0-4.604-2.234-8.843-6-11.468V4.385  C47,2.519,45.481,1,43.615,1c-1.381,0-2.604,0.823-3.129,2.098l-4.939,1.234l2,4l-4,1l2,4L32,14.219l-3.548-0.887l2-4l-4-1l2-4  l-4.939-1.234C22.989,1.823,21.766,1,20.385,1C18.519,1,17,2.519,17,4.385v0.146C13.234,7.157,11,11.396,11,16  C11,23.72,17.28,30,25,30z M28.827,51.78L21,45.519v-0.691c0-1.252,0.398-2.44,1.124-3.431C25.666,43.69,28.178,47.434,28.827,51.78  z M11.033,39H14c2.273,0,4.421,0.522,6.353,1.431c-0.717,1.051-1.162,2.256-1.302,3.53l-3.426-2.741l-1.25,1.562l7.285,5.828  c-1.111,0.595-1.963,1.586-2.374,2.794C14.66,49.076,11.393,44.432,11.033,39z M21.131,52.171c0.314-1.082,1.211-1.914,2.335-2.117  L27.149,53H26C24.294,53,22.66,52.699,21.131,52.171z M36.851,61l3.683-2.946c1.125,0.203,2.022,1.035,2.336,2.117  C41.34,60.699,39.706,61,38,61H36.851z M52.967,47c-0.359,5.432-3.627,10.076-8.252,12.403c-0.411-1.208-1.264-2.2-2.374-2.794  l7.285-5.828l-1.25-1.562l-3.426,2.741c-0.14-1.274-0.585-2.479-1.302-3.53C45.579,47.522,47.727,47,50,47H52.967z M41.876,49.398  C42.602,50.389,43,51.577,43,52.829v0.691l-7.827,6.261C35.822,55.434,38.334,51.69,41.876,49.398z M33,61h-2v-6v-1V32.899  C31.323,32.965,31.658,33,32,33s0.677-0.035,1-0.101V61z M32,31c-1.654,0-3-1.346-3-3s1.346-3,3-3s3,1.346,3,3S33.654,31,32,31z   M29.984,19.268L32,15.236l2.016,4.032l-1.513,3.783C32.335,23.034,32.172,23,32,23s-0.335,0.034-0.503,0.051L29.984,19.268z M51,16  c0,6.617-5.383,12-12,12c-0.365,0-0.733-0.021-1.101-0.055L46.432,6.61C49.307,8.88,51,12.299,51,16z M42.329,3.871  C42.54,3.342,43.046,3,43.615,3C44.379,3,45,3.622,45,4.385v0.155c0,0.177-0.033,0.35-0.1,0.514l-8.355,20.888  c-0.444-0.977-1.196-1.772-2.128-2.292L42.329,3.871z M39.567,5.389L39.01,6.783l-0.558-1.115L39.567,5.389z M37.567,10.389  l-0.558,1.394l-0.558-1.115L37.567,10.389z M35.567,15.389l-0.558,1.394l-0.558-1.115L35.567,15.389z M28.99,16.783l-0.558-1.394  l1.115,0.279L28.99,16.783z M26.99,11.783l-0.558-1.394l1.115,0.279L26.99,11.783z M24.99,6.783l-0.558-1.394l1.115,0.279  L24.99,6.783z M19,4.385C19,3.622,19.621,3,20.385,3c0.569,0,1.075,0.342,1.286,0.871l7.912,19.78  c-0.932,0.52-1.684,1.316-2.128,2.292l-8.356-20.89C19.033,4.89,19,4.718,19,4.541V4.385z M17.567,6.611l8.534,21.334  C25.733,27.979,25.365,28,25,28c-6.617,0-12-5.383-12-12C13,12.299,14.692,8.88,17.567,6.611z M44,34v2h-5v-2H44z M63,36H46v-2h17  V36z M63,40h-5v-2h5V40z M39,38h17v2H39V38z M21,33v2h-5v-2H21z M14,35H1v-2h13V35z M14,31H1v-2h13V31z M3,63H1v-2h2V63z M63,63h-2  v-2h2V63z"/>
</svg>
