<?xml version="1.0" encoding="iso-8859-1"?>
<!-- Generator: Adobe Illustrator 22.1.0, SVG Export Plug-In . SVG Version: 6.00 Build 0)  -->
<svg xmlns="http://www.w3.org/2000/svg" xmlns:xlink="http://www.w3.org/1999/xlink" version="1.1" id="Layer_1_1_" x="0px" y="0px" viewBox="0 0 64 64" style="enable-background:new 0 0 64 64;" xml:space="preserve" width="512" height="512">
<linearGradient id="SVGID_1_" gradientUnits="userSpaceOnUse" x1="32" y1="63" x2="32" y2="1">
	<stop offset="0" style="stop-color:#9F2FFF"/>
	<stop offset="1" style="stop-color:#0BB1D3"/>
</linearGradient>
<path style="fill:url(#SVGID_1_);" d="M30,42c-1.654,0-3,1.346-3,3s1.346,3,3,3s3-1.346,3-3S31.654,42,30,42z M30,46  c-0.552,0-1-0.448-1-1s0.448-1,1-1s1,0.448,1,1S30.552,46,30,46z M51,49c-1.654,0-3,1.346-3,3s1.346,3,3,3s3-1.346,3-3  S52.654,49,51,49z M51,53c-0.552,0-1-0.448-1-1s0.448-1,1-1s1,0.448,1,1S51.552,53,51,53z M42,56h2v2h-2V56z M57,47v2h-2v-2H57z   M42,46h-2v-2h2V46z M30,50h2v2h-2V50z M49.532,30.614c-0.601-0.317-1.229-0.593-1.865-0.817l0.666-1.887  c0.729,0.258,1.447,0.572,2.135,0.937L49.532,30.614z M50,24.275V15c1.654,0,3-1.346,3-3c0-1.526-1.149-2.775-2.625-2.962L52,4.162  V1H34v3.162l1.625,4.876C34.149,9.225,33,10.474,33,12c0,1.654,1.346,3,3,3v9.275c-1.053,0.394-2.064,0.887-3.037,1.453  C32.974,25.485,33,25.246,33,25c0-8.822-7.178-16-16-16S1,16.178,1,25s7.178,16,16,16c2.233,0,4.359-0.463,6.292-1.293  C23.106,40.803,23,41.904,23,43c0,11.028,8.972,20,20,20s20-8.972,20-20C63,34.623,57.806,27.188,50,24.275z M36,3h14v0.838  L48.279,9H37.721L36,3.838V3z M35,12c0-0.552,0.448-1,1-1h0.279h13.441H50c0.552,0,1,0.448,1,1s-0.448,1-1,1H36  C35.448,13,35,12.552,35,12z M3,25c0-7.72,6.28-14,14-14s14,6.28,14,14s-6.28,14-14,14S3,32.72,3,25z M32.654,28.299  c1.439-1.013,3.001-1.815,4.661-2.367L38,25.703V15h10v10.703l0.685,0.229c7.355,2.448,12.299,9.291,12.314,17.034  c-0.687-0.021-1.358-0.057-2.007-0.116c-0.046-5.022-2.365-9.626-6.391-12.651l-1.201,1.6c3.454,2.594,5.461,6.518,5.578,10.81  c-4.005-0.613-7.313-1.854-10.32-2.997C43.12,38.269,39.779,37,36,37c-5.112,0-8.667,1.554-10.694,2.793  c0.081-0.442,0.178-0.883,0.293-1.322C29.153,36.194,31.757,32.561,32.654,28.299z M43,61c-9.925,0-18-8.075-18-18  c0-0.187,0.014-0.375,0.02-0.562C26.06,41.589,29.742,39,36,39c3.412,0,6.44,1.15,9.947,2.481c4.097,1.556,8.729,3.288,14.941,3.481  C59.906,53.967,52.261,61,43,61z M17,13c-6.617,0-12,5.383-12,12s5.383,12,12,12s12-5.383,12-12S23.617,13,17,13z M17,35  c-5.514,0-10-4.486-10-10s4.486-10,10-10s10,4.486,10,10S22.514,35,17,35z M22,22.5V23h-2v-0.5c0-0.827-0.673-1.5-1.5-1.5h-3  c-0.827,0-1.5,0.673-1.5,1.5s0.673,1.5,1.5,1.5h3c1.93,0,3.5,1.57,3.5,3.5S20.43,31,18.5,31H18v2h-2v-2h-0.5  c-1.93,0-3.5-1.57-3.5-3.5V27h2v0.5c0,0.827,0.673,1.5,1.5,1.5h3c0.827,0,1.5-0.673,1.5-1.5S19.327,26,18.5,26h-3  c-1.93,0-3.5-1.57-3.5-3.5s1.57-3.5,3.5-3.5H16v-2h2v2h0.5C20.43,19,22,20.57,22,22.5z M61,7h-2V5h2V7z M59,9h2v2h-2V9z M61,7h2v2  h-2V7z M59,7v2h-2V7H59z M57,17v2h-2v-2H57z M55,21h2v2h-2V21z M57,21v-2h2v2H57z M55,19v2h-2v-2H55z M19,43v2h-2v-2H19z M17,47h2v2  h-2V47z M19,47v-2h2v2H19z M17,45v2h-2v-2H17z M5,41H3v-2h2V41z M3,43h2v2H3V43z M5,43v-2h2v2H5z M3,43H1v-2h2V43z M11,51v2H9v-2H11  z M9,55h2v2H9V55z M11,55v-2h2v2H11z M9,53v2H7v-2H9z"/>
</svg>
