<?xml version="1.0" encoding="iso-8859-1"?>
<!-- Generator: Adobe Illustrator 22.1.0, SVG Export Plug-In . SVG Version: 6.00 Build 0)  -->
<svg xmlns="http://www.w3.org/2000/svg" xmlns:xlink="http://www.w3.org/1999/xlink" version="1.1" id="Layer_1_1_" x="0px" y="0px" viewBox="0 0 64 64" style="enable-background:new 0 0 64 64;" xml:space="preserve" width="512" height="512">
<linearGradient id="SVGID_1_" gradientUnits="userSpaceOnUse" x1="32" y1="63.0684" x2="32" y2="1">
	<stop offset="0" style="stop-color:#9F2FFF"/>
	<stop offset="1" style="stop-color:#0BB1D3"/>
</linearGradient>
<path style="fill:url(#SVGID_1_);" d="M27.497,25H19v2.528c0,2.377-1.321,4.515-3.447,5.578L15,33.382v5.53  c0,10.635,6.69,20.289,16.649,24.024L32,63.068l0.351-0.132C42.31,59.201,49,49.547,49,38.912v-5.53l-0.553-0.276  C46.321,32.042,45,29.905,45,27.528V25h-8.497l-0.429-6H38v2h2v-2h2v-1c0-1.557-0.606-3.021-1.707-4.121L39.414,13H35V7  c1.654,0,3-1.346,3-3s-1.346-3-3-3h-6c-1.654,0-3,1.346-3,3s1.346,3,3,3v6h-4.414l-0.879,0.879C22.606,14.979,22,16.443,22,18v1h2v2  h2v-2h1.926L27.497,25z M32,53.562l6.026-7.231L36.931,31h2.564c0.63,2.16,1.828,4.071,3.504,5.586v2.326  c0,7.477-4.302,14.352-11,17.646c-6.698-3.295-11-10.17-11-17.646v-2.326c1.676-1.515,2.875-3.426,3.504-5.586h2.564l-1.095,15.331  L32,53.562z M43,27v0.528c0,2.928,1.518,5.581,4,7.064v4.32c0,9.681-6.013,18.479-15,22.017c-8.987-3.537-15-12.336-15-22.017v-4.32  c2.482-1.483,4-4.136,4-7.064V27h6.354l-0.143,2h-4.284l-0.174,0.783c-0.49,2.203-1.665,4.132-3.395,5.582L19,35.664v3.248  c0,8.408,4.938,16.126,12.58,19.662L32,58.769l0.42-0.194C40.062,55.038,45,47.32,45,38.912v-3.248l-0.358-0.3  c-1.73-1.449-2.905-3.379-3.395-5.582L41.072,29h-4.284l-0.143-2H43z M35.974,45.669L33,49.237V31h-2v18.237l-2.974-3.568L29.931,19  H31v10h2V19h1.069L35.974,45.669z M28,4c0-0.551,0.449-1,1-1h6c0.551,0,1,0.449,1,1s-0.449,1-1,1h-6C28.449,5,28,4.551,28,4z M33,7  v2h-2V7H33z M31,11h2v2h-2V11z M25.121,15.293L25.414,15h13.172l0.293,0.293c0.481,0.481,0.818,1.067,0.99,1.707H24.131  C24.303,16.36,24.64,15.774,25.121,15.293z M48,20h2c0-1.654,1.346-3,3-3v-2c-1.654,0-3-1.346-3-3h-2c0,1.654-1.346,3-3,3v2  C46.654,17,48,18.346,48,20z M49,14.969c0.292,0.393,0.638,0.739,1.031,1.031c-0.393,0.292-0.739,0.638-1.031,1.031  c-0.292-0.393-0.638-0.739-1.031-1.031C48.362,15.708,48.708,15.362,49,14.969z M16,7h-2c0,1.654-1.346,3-3,3v2c1.654,0,3,1.346,3,3  h2c0-1.654,1.346-3,3-3v-2C17.346,10,16,8.654,16,7z M15,12.031c-0.292-0.393-0.638-0.739-1.031-1.031  c0.393-0.292,0.739-0.638,1.031-1.031c0.292,0.393,0.638,0.739,1.031,1.031C15.638,11.292,15.292,11.638,15,12.031z M61,18h-2v-2h2  V18z M59,20h2v2h-2V20z M61,18h2v2h-2V18z M59,18v2h-2v-2H59z M5,19H3v-2h2V19z M3,21h2v2H3V21z M5,21v-2h2v2H5z M3,21H1v-2h2V21z   M9,3H7V1h2V3z M7,7V5h2v2H7z M9,5V3h2v2H9z M7,3v2H5V3H7z M52,3h-2V1h2V3z M50,5h2v2h-2V5z M52,3h2v2h-2V3z M50,3v2h-2V3H50z"/>
</svg>
