<?xml version="1.0" encoding="iso-8859-1"?>
<!-- Generator: Adobe Illustrator 22.1.0, SVG Export Plug-In . SVG Version: 6.00 Build 0)  -->
<svg xmlns="http://www.w3.org/2000/svg" xmlns:xlink="http://www.w3.org/1999/xlink" version="1.1" id="Layer_1_1_" x="0px" y="0px" viewBox="0 0 64 64" style="enable-background:new 0 0 64 64;" xml:space="preserve" width="512" height="512">
<linearGradient id="SVGID_1_" gradientUnits="userSpaceOnUse" x1="32" y1="63" x2="32" y2="1">
	<stop offset="0" style="stop-color:#9F2FFF"/>
	<stop offset="1" style="stop-color:#0BB1D3"/>
</linearGradient>
<path style="fill:url(#SVGID_1_);" d="M13,3.586L10.414,1H8.586L4,5.586v1.828L6.586,10h1.828L8.5,9.914l7.481,7.481  c-0.097,2.164-0.975,4.185-2.516,5.727L12.586,24l10.5,10.5L15,42.586v2.828L18.586,49h2.828l8.086-8.086l2.145,2.145  c-1.918,2.603-1.707,6.293,0.648,8.648l0.197,0.197C31.412,52.616,30.15,53,28.829,53c-0.801,0-1.555,0.312-2.122,0.879  c-1.168,1.17-1.168,3.072,0,4.242L30.585,62c0.645,0.645,1.502,1,2.415,1s1.77-0.355,2.414-1L43,54.414L50.585,62  c0.645,0.645,1.502,1,2.415,1s1.77-0.355,2.414-1L59,58.414c0.645-0.646,1-1.503,1-2.414s-0.355-1.769-1-2.414l-0.915-0.915l1-5  L49.414,38L54,33.414v-2.828L49.414,26h-2.828L45,27.586l-5.671-5.671l-5,1L22,10.586l-2,2L16.414,9l1.301-1.301  C18.106,7.887,18.538,8,19,8c1.654,0,3-1.346,3-3s-1.346-3-3-3s-3,1.346-3,3c0,0.462,0.113,0.894,0.301,1.285L15,7.586L12.914,5.5  L13,5.414V3.586z M19,4c0.551,0,1,0.449,1,1s-0.449,1-1,1s-1-0.449-1-1S18.449,4,19,4z M7.414,8L6,6.586V6.414L9.414,3h0.172  L11,4.414v0.172L7.586,8H7.414z M20.586,47h-1.172L17,44.586v-1.172l7.5-7.5L25.586,37l-5.293,5.293l1.414,1.414L27,38.414  l1.086,1.086L20.586,47z M33.081,44.495L36.586,48L34,50.586l-0.293-0.293C32.135,48.721,31.93,46.296,33.081,44.495z M34,60.586  c-0.533,0.535-1.465,0.535-2,0l-3.878-3.879c-0.39-0.39-0.39-1.024,0-1.414C28.31,55.104,28.562,55,28.829,55  c2.312,0,4.486-0.9,6.121-2.535L38,49.414L41.586,53L34,60.586z M52,60.586L25.414,34l2.086-2.086L55.086,59.5L54,60.586  C53.466,61.121,52.534,61.121,52,60.586z M50.336,47.75l-2.086,2.086L46.914,48.5L49,46.414L50.336,47.75z M52.414,54l2.086-2.086  l1.336,1.336l-2.086,2.086L52.414,54z M51,52.586l-1.336-1.336l2.086-2.086l1.336,1.336L51,52.586z M57.586,57L56.5,58.086  l-1.336-1.336l2.086-2.086L57.585,55C57.853,55.268,58,55.622,58,56S57.853,56.732,57.586,57z M56.386,50.972L39.707,34.293  l-1.414,1.414L47.586,45L45.5,47.086L28.914,30.5L34,25.414l22.915,22.915L56.386,50.972z M47.414,28h1.172L52,31.414v1.172l-4,4  L43.414,32L47.414,28z M38.671,24.085L43.586,29L42,30.586l-5.972-5.972L38.671,24.085z M23.586,15l-2.293,2.293l1.414,1.414  L25,16.414L26.586,18l-2.293,2.293l1.414,1.414L28,19.414L29.586,21l-2.293,2.293l1.414,1.414L31,22.414L32.586,24L24,32.586  l-8.604-8.604c1.593-1.832,2.502-4.124,2.596-6.559L22,13.414L23.586,15z M18.586,14L17,15.586L9.914,8.5L11.5,6.914L18.586,14z   M47,33v-2h2v2H47z"/>
</svg>
