<?xml version="1.0" encoding="iso-8859-1"?>
<!-- Generator: Adobe Illustrator 22.1.0, SVG Export Plug-In . SVG Version: 6.00 Build 0)  -->
<svg xmlns="http://www.w3.org/2000/svg" xmlns:xlink="http://www.w3.org/1999/xlink" version="1.1" id="Layer_1_1_" x="0px" y="0px" viewBox="0 0 64 64" style="enable-background:new 0 0 64 64;" xml:space="preserve" width="512" height="512">
<linearGradient id="SVGID_1_" gradientUnits="userSpaceOnUse" x1="32" y1="63" x2="32" y2="1">
	<stop offset="0" style="stop-color:#9F2FFF"/>
	<stop offset="1" style="stop-color:#0BB1D3"/>
</linearGradient>
<path style="fill:url(#SVGID_1_);" d="M29,26h6c3.309,0,6-2.691,6-6s-2.691-6-6-6h-0.618L34,14.764C33.619,15.526,32.853,16,32,16  s-1.619-0.474-2-1.236L29.618,14H29c-3.309,0-6,2.691-6,6S25.691,26,29,26z M28.427,16.041C29.201,17.26,30.533,18,32,18  s2.799-0.74,3.573-1.959C37.508,16.319,39,17.989,39,20c0,2.206-1.794,4-4,4h-6c-2.206,0-4-1.794-4-4  C25,17.989,26.492,16.319,28.427,16.041z M29.184,61c0.414,1.161,1.514,2,2.816,2c1.654,0,3-1.346,3-3v-0.249  C44.75,58.289,52,49.965,52,40c0-6.251-2.941-12.128-7.902-15.906c0.49-1.058,0.802-2.212,0.881-3.431  c0.181-2.799-0.771-5.463-2.681-7.501C40.413,11.152,37.753,10,35,10h-5.692c-5.429,0-9.948,4.102-10.287,9.337  c-0.108,1.675,0.197,3.299,0.863,4.773C14.935,27.888,12,33.76,12,40c0,7.165,3.821,13.734,10,17.309V61H29.184z M32,61  c-0.551,0-1-0.448-1-1v-6h-2v5h-5v-2h3v-9h-3v-2h5v5h2V37h2v23C33,60.552,32.551,61,32,61z M31,33h2v2h-2V33z M50,40  c0,8.867-6.377,16.291-15,17.731V29.995c3.311-0.095,6.254-1.714,8.076-4.171C47.429,29.23,50,34.454,50,40z M21.018,19.466  C21.289,15.279,24.93,12,29.308,12H35c2.235,0,4.309,0.898,5.838,2.53c1.528,1.63,2.29,3.763,2.145,6.004  C42.711,24.721,39.07,28,34.692,28H33v3h-2v-3h-2c-2.235,0-4.309-0.898-5.838-2.53C21.634,23.84,20.873,21.707,21.018,19.466z   M14,40c0-5.531,2.56-10.746,6.896-14.152c0.248,0.342,0.512,0.676,0.806,0.99C23.587,28.848,26.247,30,29,30v14h-7v6h3v5h-2.934  C17.057,51.683,14,46.078,14,40z M19.53,1.074l0.766,1.848l-1.848,0.766L17.682,1.84L19.53,1.074z M19.979,7.383l-0.766-1.848  l1.848-0.766l0.766,1.848L19.979,7.383z M2.839,17.683l1.848,0.765l-0.765,1.848L2.074,19.53L2.839,17.683z M5.77,21.061  l0.766-1.848l1.848,0.766l-0.766,1.848L5.77,21.061z M2.074,44.47l1.848-0.765l0.765,1.848l-1.848,0.765L2.074,44.47z M5.77,42.939  l1.848-0.766l0.766,1.848l-1.848,0.766L5.77,42.939z M61.926,44.47l-0.765,1.848l-1.848-0.765l0.765-1.848L61.926,44.47z   M57.465,44.787l-1.848-0.766l0.766-1.848l1.848,0.766L57.465,44.787z M60.078,20.295l-0.765-1.848l1.848-0.765l0.765,1.848  L60.078,20.295z M55.617,19.979l1.848-0.766l0.766,1.848l-1.848,0.766L55.617,19.979z M45.552,3.688l-1.848-0.766l0.766-1.848  l1.848,0.766L45.552,3.688z M42.939,4.77l1.848,0.766l-0.766,1.848l-1.848-0.766L42.939,4.77z M12.908,14.322L4.423,5.837  l1.414-1.414l8.485,8.485L12.908,14.322z M11,33H1v-2h10V33z M53,31h10v2H53V31z M58.163,4.423l1.414,1.414l-8.485,8.485  l-1.414-1.414L58.163,4.423z M33,3h-2V1h2V3z M31,5h2v2h-2V5z"/>
</svg>
