<?xml version="1.0" encoding="iso-8859-1"?>
<!-- Generator: Adobe Illustrator 22.1.0, SVG Export Plug-In . SVG Version: 6.00 Build 0)  -->
<svg xmlns="http://www.w3.org/2000/svg" xmlns:xlink="http://www.w3.org/1999/xlink" version="1.1" id="Layer_1_1_" x="0px" y="0px" viewBox="0 0 64 64" style="enable-background:new 0 0 64 64;" xml:space="preserve" width="512" height="512">
<linearGradient id="SVGID_1_" gradientUnits="userSpaceOnUse" x1="32" y1="63" x2="32" y2="1">
	<stop offset="0" style="stop-color:#9F2FFF"/>
	<stop offset="1" style="stop-color:#0BB1D3"/>
</linearGradient>
<path style="fill:url(#SVGID_1_);" d="M9,51c-2.206,0-4,1.794-4,4s1.794,4,4,4s4-1.794,4-4S11.206,51,9,51z M9,57  c-1.103,0-2-0.897-2-2s0.897-2,2-2s2,0.897,2,2S10.103,57,9,57z M57,1H45v9h-4.051C40.446,4.954,36.177,1,31,1s-9.446,3.954-9.949,9  H17V9c0-4.411-3.589-8-8-8S1,4.589,1,9v46c0,4.411,3.589,8,8,8h48c3.309,0,6-2.691,6-6V7C63,3.691,60.309,1,57,1z M23,11  c0-4.411,3.589-8,8-8s8,3.589,8,8v0.275c0,1.585-0.465,3.119-1.344,4.438l-5.934,8.9c-0.323,0.484-1.122,0.484-1.445,0l-5.934-8.9  C23.465,14.395,23,12.86,23,11.275V11z M17,25.081l2.425,1.94C20.214,27.652,21.206,28,22.217,28h0.672  c0.518,0,1.014,0.159,1.435,0.46l4.644,3.317C29.614,32.238,30,32.989,30,33.785V36.5c0,1.064-0.678,2.006-1.687,2.342l-1.258,0.419  C25.228,39.87,24,41.574,24,43.5c0,1.064-0.678,2.006-1.688,2.343l-3.092,1.03C18.965,46.957,18.702,47,18.437,47H17V25.081z M3,9  c0-3.309,2.691-6,6-6s6,2.691,6,6v40.726C13.533,48.059,11.39,47,9,47s-4.533,1.059-6,2.726V9z M3,55c0-3.309,2.691-6,6-6  s6,2.691,6,6s-2.691,6-6,6S3,58.309,3,55z M17,55v-6h1.437c0.479,0,0.954-0.077,1.414-0.229l3.094-1.031  C24.772,47.13,26,45.426,26,43.5c0-1.064,0.678-2.006,1.687-2.342l1.258-0.419C30.772,40.13,32,38.426,32,36.5v-2.715  c0-1.44-0.7-2.8-1.872-3.636l-4.642-3.316C24.725,26.288,23.827,26,22.889,26h-0.672c-0.559,0-1.106-0.192-1.542-0.541L17,22.519V12  h4.053c0.125,1.72,0.663,3.377,1.626,4.822l5.934,8.9C29.147,26.522,30.039,27,31,27s1.853-0.478,2.387-1.277l5.934-8.9  c0.963-1.445,1.502-3.102,1.626-4.822H45v29h-4.124c-1.488,0-2.909,0.711-3.802,1.901l-1.124,1.498  C35.337,45.217,35,46.229,35,47.251v2.625c0,0.961-0.512,1.865-1.336,2.359l-1.357,0.814C30.884,53.903,30,55.465,30,57.124  c0,0.861-0.412,1.685-1.101,2.202L26.667,61H14.274C15.941,59.533,17,57.39,17,55z M57,61H30.001l0.099-0.074  c1.189-0.894,1.9-2.314,1.9-3.802c0-0.961,0.512-1.865,1.336-2.359l1.357-0.814C36.116,53.097,37,51.535,37,49.876v-2.625  c0-0.601,0.19-1.171,0.551-1.651l1.124-1.499C39.191,43.411,40.014,43,40.876,43H45v10h12c2.206,0,4,1.794,4,4S59.206,61,57,61z   M61,52.531C59.938,51.58,58.535,51,57,51H47V3h10c2.206,0,4,1.794,4,4V52.531z M31,17c3.309,0,6-2.691,6-6s-2.691-6-6-6  s-6,2.691-6,6S27.691,17,31,17z M31,7c2.206,0,4,1.794,4,4s-1.794,4-4,4s-4-1.794-4-4S28.794,7,31,7z M41,45h2v2h-2V45z M37,57h2v2  h-2V57z M45,55h2v2h-2V55z M23,33h-2v-2h2V33z M27,37h-2v-2h2V37z M21,41h-2v-2h2V41z"/>
</svg>
