<?xml version="1.0" encoding="iso-8859-1"?>
<!-- Generator: Adobe Illustrator 22.1.0, SVG Export Plug-In . SVG Version: 6.00 Build 0)  -->
<svg xmlns="http://www.w3.org/2000/svg" xmlns:xlink="http://www.w3.org/1999/xlink" version="1.1" id="Layer_1_1_" x="0px" y="0px" viewBox="0 0 64 64" style="enable-background:new 0 0 64 64;" xml:space="preserve" width="512" height="512">
<linearGradient id="SVGID_1_" gradientUnits="userSpaceOnUse" x1="32" y1="63" x2="32" y2="1">
	<stop offset="0" style="stop-color:#9F2FFF"/>
	<stop offset="1" style="stop-color:#0BB1D3"/>
</linearGradient>
<path style="fill:url(#SVGID_1_);" d="M32,29c-6.617,0-12,5.383-12,12v8.09c-2.507,0.423-4.486,2.403-4.91,4.91H11  c-1.302,0-2.402,0.839-2.816,2H5v2h3.184c0.414,1.161,1.514,2,2.816,2h6.119l2.4,3h2.961l2.4-3H32h7.119l2.4,3h2.961l2.4-3H53  c1.302,0,2.402-0.839,2.816-2H59v-2h-3.184c-0.414-1.161-1.514-2-2.816-2h-4.09c-0.423-2.507-2.403-4.486-4.91-4.91V41  C44,34.383,38.617,29,32,29z M32,31c5.514,0,10,4.486,10,10v8.09c-2.163,0.365-3.932,1.888-4.65,3.91h-0.522  c-1.773,0-3.456,0.585-4.828,1.665C30.628,53.585,28.945,53,27.172,53H26.65c-0.718-2.022-2.487-3.544-4.65-3.91V41  C22,35.486,26.486,31,32,31z M17,55c0-2.206,1.794-4,4-4s4,1.794,4,4v0.246c0,0.254-0.031,0.506-0.079,0.754h-7.843  C17.031,55.752,17,55.5,17,55.246V55z M10,57c0-0.551,0.448-1,1-1h4.064c0.089,0.699,0.296,1.375,0.619,2H11  C10.448,58,10,57.551,10,57z M18.081,58H20v2.399L18.081,58z M22,60.399V58h1.919L22,60.399z M26.317,58  C26.755,57.151,27,56.208,27,55.246V55h0.172c1.557,0,3.021,0.606,4.121,1.707L32,57.415l0.707-0.708  C33.808,55.606,35.271,55,36.828,55H37v0.246c0,0.961,0.245,1.905,0.683,2.754H32H26.317z M40.081,58H42v2.399L40.081,58z   M44,60.399V58h1.919L44,60.399z M54,57c0,0.551-0.448,1-1,1h-4.683c0.323-0.625,0.53-1.301,0.619-2H53C53.552,56,54,56.449,54,57z   M47,55v0.246c0,0.254-0.031,0.506-0.079,0.754h-7.843C39.031,55.752,39,55.5,39,55.246V55c0-2.206,1.794-4,4-4S47,52.794,47,55z   M26,47c0,1.858,1.279,3.411,3,3.858V52h2v-1.132c0.349-0.092,0.686-0.229,1-0.413c0.314,0.184,0.651,0.321,1,0.413V52h2v-1.142  c1.721-0.447,3-2,3-3.858c0-1.877-1.303-3.444-3.05-3.873C34.719,41.917,33.657,41,32.382,41h-0.764  c-1.275,0-2.337,0.917-2.568,2.127C27.303,43.556,26,45.123,26,47z M31.618,43h0.764C32.723,43,33,43.277,33,43.618  c0,0.095-0.022,0.191-0.065,0.276l-0.382,0.763c-0.211,0.423-0.895,0.422-1.105,0l-0.382-0.764C31.022,43.809,31,43.713,31,43.618  C31,43.277,31.277,43,31.618,43z M32,47c0.998,0,1.895-0.555,2.342-1.447l0.23-0.459C35.395,45.341,36,46.097,36,47  c0,1.103-0.897,2-2,2c-0.485,0-0.957-0.185-1.331-0.521L32,47.876l-0.669,0.603C30.957,48.815,30.485,49,30,49c-1.103,0-2-0.897-2-2  c0-0.903,0.605-1.659,1.428-1.907l0.23,0.46C30.105,46.445,31.002,47,32,47z M25.293,38.293l0.793-0.793l-0.793-0.793l1.414-1.414  l0.793,0.793l0.793-0.793l1.414,1.414L28.914,37.5l0.793,0.793l-1.414,1.414L27.5,38.914l-0.793,0.793L25.293,38.293z   M34.293,38.293l0.793-0.793l-0.793-0.793l1.414-1.414l0.793,0.793l0.793-0.793l1.414,1.414L37.914,37.5l0.793,0.793l-1.414,1.414  L36.5,38.914l-0.793,0.793L34.293,38.293z M32,17c1.654,0,3-1.346,3-3s-1.346-3-3-3s-3,1.346-3,3S30.346,17,32,17z M32,13  c0.552,0,1,0.449,1,1s-0.448,1-1,1s-1-0.449-1-1S31.448,13,32,13z M3,20h2c1.103,0,2-0.897,2-2h18v3c-1.103,0-2,0.897-2,2v2  c0,1.103,0.897,2,2,2h14c1.103,0,2-0.897,2-2v-2c0-1.103-0.897-2-2-2V7c1.103,0,2-0.897,2-2V3c0-1.103-0.897-2-2-2H25  c-1.103,0-2,0.897-2,2v2c0,1.103,0.897,2,2,2v3H7c0-1.103-0.897-2-2-2H3c-1.103,0-2,0.897-2,2v8C1,19.103,1.897,20,3,20z M12.586,16  H9.414l4-4h3.172L12.586,16z M19.414,12h3.172l-4,4h-3.172L19.414,12z M21.414,16L25,12.414V16H21.414z M39.001,25H25v-2h14  L39.001,25z M25,3h14l0.001,2H25V3z M37,7v14H27V7H37z M10.586,12L7,15.586V12H10.586z M3,10h2l0.001,8H3V10z M54,13h-2v-2h2V9h2v2  h2v2h-2v2h-2V13z M3,40H1v-2h2v-2h2v2h2v2H5v2H3V40z M63,43v2h-2v2h-2v-2h-2v-2h2v-2h2v2H63z M13,23v1c0,1.654-1.346,3-3,3H9v2h1  c1.654,0,3,1.346,3,3v1h2v-1c0-1.654,1.346-3,3-3h1v-2h-1c-1.654,0-3-1.346-3-3v-1H13z M15.031,28  c-0.393,0.292-0.739,0.638-1.031,1.031c-0.292-0.393-0.638-0.739-1.031-1.031c0.393-0.292,0.739-0.638,1.031-1.031  C14.292,27.362,14.638,27.708,15.031,28z M50,36v1h2v-1c0-1.654,1.346-3,3-3h1v-2h-1c-1.654,0-3-1.346-3-3v-1h-2v1  c0,1.654-1.346,3-3,3h-1v2h1C48.654,33,50,34.346,50,36z M51,30.969c0.292,0.393,0.638,0.739,1.031,1.031  c-0.393,0.292-0.739,0.638-1.031,1.031c-0.292-0.393-0.638-0.739-1.031-1.031C50.362,31.708,50.708,31.362,51,30.969z M61,56h2v2h-2  V56z M3,58H1v-2h2V58z"/>
</svg>
