<?xml version="1.0" encoding="iso-8859-1"?>
<!-- Generator: Adobe Illustrator 22.1.0, SVG Export Plug-In . SVG Version: 6.00 Build 0)  -->
<svg xmlns="http://www.w3.org/2000/svg" xmlns:xlink="http://www.w3.org/1999/xlink" version="1.1" id="Layer_1_1_" x="0px" y="0px" viewBox="0 0 64 64" style="enable-background:new 0 0 64 64;" xml:space="preserve" width="512" height="512">
<linearGradient id="SVGID_1_" gradientUnits="userSpaceOnUse" x1="32" y1="63" x2="32" y2="1.5859">
	<stop offset="0" style="stop-color:#9F2FFF"/>
	<stop offset="1" style="stop-color:#0BB1D3"/>
</linearGradient>
<path style="fill:url(#SVGID_1_);" d="M20,27c0,6.617,5.383,12,12,12s12-5.383,12-12s-5.383-12-12-12S20,20.383,20,27z M32,17  c5.514,0,10,4.486,10,10s-4.486,10-10,10s-10-4.486-10-10S26.486,17,32,17z M27,29.5V29h2v0.5c0,0.827,0.673,1.5,1.5,1.5h3  c0.827,0,1.5-0.673,1.5-1.5S34.327,28,33.5,28h-3c-1.93,0-3.5-1.57-3.5-3.5s1.57-3.5,3.5-3.5H31v-2h2v2h0.5c1.93,0,3.5,1.57,3.5,3.5  V25h-2v-0.5c0-0.827-0.673-1.5-1.5-1.5h-3c-0.827,0-1.5,0.673-1.5,1.5s0.673,1.5,1.5,1.5h3c1.93,0,3.5,1.57,3.5,3.5  S35.43,33,33.5,33H33v2h-2v-2h-0.5C28.57,33,27,31.43,27,29.5z M57,45H42v-4H22v4H7v16H5v2h54v-2h-2V45z M50,55v6h-8v-6H50z M52,55  h3v6h-3V55z M55,53h-8v-6h8V53z M45,47v6h-3v-6H45z M40,43v18H24V43H40z M22,55v6h-8v-6H22z M22,53h-3v-6h3V53z M17,47v6H9v-6H17z   M9,55h3v6H9V55z M30,49h-2c0-2.206,1.794-4,4-4s4,1.794,4,4c0,1.86-1.276,3.429-3,3.873V55h-2v-4h1c1.103,0,2-0.897,2-2  s-0.897-2-2-2S30,47.897,30,49z M31,57h2v2h-2V57z M31,13V5.414l-1.293,1.293l-1.414-1.414L32,1.586l3.707,3.707l-1.414,1.414  L33,5.414V13H31z M19,3.586l3.707,3.707l-1.414,1.414L20,7.414V16h-2V7.414l-1.293,1.293l-1.414-1.414L19,3.586z M27,9h-2V7h2V9z   M25,11h2v2h-2V11z M20,18v2h-2v-2H20z M46,16h-2V7.414l-1.293,1.293l-1.414-1.414L45,3.586l3.707,3.707l-1.414,1.414L46,7.414V16z   M39,9h-2V7h2V9z M37,11h2v2h-2V11z M44,18h2v2h-2V18z M61,61h2v2h-2V61z M1,61h2v2H1V61z"/>
</svg>
