<?xml version="1.0" encoding="iso-8859-1"?>
<!-- Generator: Adobe Illustrator 22.1.0, SVG Export Plug-In . SVG Version: 6.00 Build 0)  -->
<svg xmlns="http://www.w3.org/2000/svg" xmlns:xlink="http://www.w3.org/1999/xlink" version="1.1" id="Layer_1_1_" x="0px" y="0px" viewBox="0 0 64 64" style="enable-background:new 0 0 64 64;" xml:space="preserve" width="512" height="512">
<linearGradient id="SVGID_1_" gradientUnits="userSpaceOnUse" x1="32" y1="63" x2="32" y2="1">
	<stop offset="0" style="stop-color:#9F2FFF"/>
	<stop offset="1" style="stop-color:#0BB1D3"/>
</linearGradient>
<path style="fill:url(#SVGID_1_);" d="M51.25,15L44,5.333L36.75,15L44,24.667L51.25,15z M45,14.387l3.368,1.123L45,20V14.387z   M45,12.28V10l2.28,3.039L45,12.28z M43,12.28l-2.28,0.76L43,10V12.28z M43,14.387V20l-3.368-4.49L43,14.387z M22.598,55.055  l1.562,1.248l-1.281,1.604l-1.562-1.248L22.598,55.055z M32,32h2c0,2.757-2.243,5-5,5s-5-2.243-5-5s2.243-5,5-5v2  c-1.654,0-3,1.346-3,3s1.346,3,3,3S32,33.654,32,32z M3,10H1V8h2V10z M9,10H7V8h2V10z M15,10h-2V8h2V10z M7,14h2v2H7V14z M13,14h2v2  h-2V14z M61,48h2v2h-2V48z M57,50h-2v-2h2V50z M51,50h-2v-2h2V50z M55,54h2v2h-2V54z M49,54h2v2h-2V54z M61,61h2v2h-2V61z M3,63H1  v-2h2V63z M5,63h54v-2H41.769C42.538,60.062,43,58.863,43,57.559c0-1.23-0.423-2.438-1.192-3.4l-1.425-1.781  C39.491,51.263,39,49.863,39,48.437c0-1.356,0.448-2.701,1.262-3.786L41.5,43H46c3.86,0,7-3.141,7-7c0-1.506-0.498-2.997-1.4-4.199  l-2.76-3.681C54.178,26.144,58,21.017,58,15c0-7.72-6.28-14-14-14c-5.619,0-10.463,3.335-12.69,8.124  c-3.262-0.477-6.559,0.874-8.51,3.477L8.4,31.8C7.498,33.003,7,34.494,7,36c0,3.859,3.14,7,7,7h4.5l1.238,1.65  C20.552,45.735,21,47.08,21,48.437c0,1.427-0.491,2.826-1.382,3.94l-1.426,1.782C17.423,55.12,17,56.328,17,57.559  c0,1.305,0.462,2.503,1.231,3.441H5V63z M37.101,41c0.465-2.279,2.484-4,4.899-4c2.382,0,4.374,1.678,4.873,3.912  C46.588,40.962,46.299,41,46,41H37.101z M44,3c6.617,0,12,5.383,12,12s-5.383,12-12,12s-12-5.383-12-12S37.383,3,44,3z   M20.733,18.69C21.544,19.596,22,20.757,22,22c0,2.757-2.243,5-5,5c-0.747,0-1.466-0.176-2.13-0.493L20.733,18.69z M9.041,36.408  C9.661,36.142,10.327,36,11,36c2.757,0,5,2.243,5,5h-2C11.383,41,9.253,38.971,9.041,36.408z M11,34  c-0.558,0-1.112,0.076-1.652,0.208C9.512,33.779,9.724,33.368,10,33l3.651-4.868C14.677,28.697,15.816,29,17,29c3.86,0,7-3.141,7-7  c0-1.88-0.741-3.627-2.051-4.933L24.4,13.8c1.43-1.907,3.779-2.965,6.181-2.768C30.208,12.291,30,13.621,30,15c0,7.72,6.28,14,14,14  c0.955,0,1.888-0.097,2.79-0.281L50,33.001c0.645,0.858,1,1.924,1,2.999c0,1.741-0.897,3.274-2.251,4.169  C47.941,37.196,45.226,35,42,35c-3.519,0-6.432,2.614-6.92,6H18C18,37.141,14.86,34,11,34z M19,57.559  c0-0.778,0.268-1.542,0.754-2.15l1.425-1.781C22.354,52.159,23,50.315,23,48.437c0-1.786-0.59-3.557-1.662-4.985L21,43h2.441  C24.444,44.623,25,46.538,25,48.437c0,1.812-0.483,3.604-1.397,5.181l1.73,1.002C26.424,52.738,27,50.601,27,48.437  c0-1.867-0.45-3.748-1.277-5.437H39l-0.338,0.451C37.59,44.88,37,46.65,37,48.437c0,1.879,0.646,3.723,1.821,5.19l1.425,1.78  C40.732,56.017,41,56.78,41,57.559C41,59.456,39.456,61,37.558,61H22.442C20.544,61,19,59.456,19,57.559z"/>
</svg>
