<?xml version="1.0" encoding="iso-8859-1"?>
<!-- Generator: Adobe Illustrator 22.1.0, SVG Export Plug-In . SVG Version: 6.00 Build 0)  -->
<svg xmlns="http://www.w3.org/2000/svg" xmlns:xlink="http://www.w3.org/1999/xlink" version="1.1" id="Layer_1_1_" x="0px" y="0px" viewBox="0 0 64 64" style="enable-background:new 0 0 64 64;" xml:space="preserve" width="512" height="512">
<linearGradient id="SVGID_1_" gradientUnits="userSpaceOnUse" x1="32" y1="1" x2="32" y2="63" gradientTransform="matrix(1 0 0 -1 0 64)">
	<stop offset="0" style="stop-color:#9F2FFF"/>
	<stop offset="1" style="stop-color:#0BB1D3"/>
</linearGradient>
<path style="fill:url(#SVGID_1_);" d="M32,1c-1.654,0-3,1.181-3,2.633V6H11.586l-5,5l5,5H29v6H11.586l-5,5l5,5H29v18.841  c-2.55-1.365-5.334-2.266-8.229-2.627l-4.089-0.511l3.664,4.579c0.695,0.87,1.193,1.884,1.462,2.958  c-2.103-1.003-4.318-1.749-6.605-2.22l-1.82-0.375l1.576,3.94c0.567,1.418,0.892,2.9,0.995,4.414H5v2h11h16h27v-2H48.047  c0.103-1.514,0.428-2.996,0.996-4.414l1.576-3.94l-1.82,0.375c-2.287,0.471-4.503,1.216-6.605,2.22  c0.269-1.074,0.767-2.089,1.462-2.958l3.664-4.579l-4.089,0.511c-2.896,0.362-5.68,1.263-8.229,2.627V28h17.414l5-5l-4.149-4.149  C54.955,17.059,56,14.652,56,12c0-5.514-4.486-10-10-10S36,6.486,36,12c0,2.253,0.758,4.326,2.019,6H35V3.633  C35,2.181,33.654,1,32,1z M12.414,14l-3-3l3-3H29v6H12.414z M12.414,30l-3-3l3-3H29v6H12.414z M42.093,51.033  c-1.347,1.683-2.104,3.798-2.131,5.955l-0.021,1.698l1.939-1.043c1.74-0.938,3.574-1.679,5.472-2.212l-0.165,0.413  c-0.663,1.656-1.033,3.387-1.139,5.157H32H17.97c-0.106-1.771-0.494-3.501-1.156-5.157l-0.166-0.413  c1.898,0.533,3.732,1.274,5.473,2.213l1.938,1.042l-0.021-1.698c-0.028-2.157-0.785-4.271-2.131-5.955l-0.574-0.718  c3.672,0.601,7.129,2.136,10.043,4.466l0.625,0.5l0.625-0.5c2.914-2.331,6.371-3.866,10.043-4.466L42.093,51.033z M32,52.736  c-0.344-0.257-0.699-0.499-1.056-0.736H31V3.633C31,3.334,31.428,3,32,3s1,0.334,1,0.633V52h0.056  C32.699,52.237,32.344,52.479,32,52.736z M46,4c4.411,0,8,3.589,8,8s-3.589,8-8,8s-8-3.589-8-8S41.589,4,46,4z M40.025,20  c1.669,1.25,3.733,2,5.975,2c2.142,0,4.123-0.683,5.752-1.834L54.586,23l-3,3H35v-6H40.025z M47,14c0-0.551-0.449-1-1-1  c-1.654,0-3-1.346-3-3c0-1.302,0.839-2.402,2-2.816V6h2v1.184c1.161,0.414,2,1.514,2,2.816h-2c0-0.551-0.449-1-1-1s-1,0.449-1,1  s0.449,1,1,1c1.654,0,3,1.346,3,3c0,1.302-0.839,2.402-2,2.816V18h-2v-1.184c-1.161-0.414-2-1.514-2-2.816h2c0,0.551,0.449,1,1,1  S47,14.551,47,14z M11,36H9v-2h2V36z M27,36H13v-2h14V36z M53,32v-2h2v2H53z M37,32v-2h14v2H37z M9,38h2v2H9V38z M13,38h14v2H13V38z   M3,63H1v-2h2V63z M61,61h2v2h-2V61z"/>
</svg>
