<?xml version="1.0" encoding="iso-8859-1"?>
<!-- Generator: Adobe Illustrator 22.1.0, SVG Export Plug-In . SVG Version: 6.00 Build 0)  -->
<svg xmlns="http://www.w3.org/2000/svg" xmlns:xlink="http://www.w3.org/1999/xlink" version="1.1" id="Layer_1_1_" x="0px" y="0px" viewBox="0 0 64 64" style="enable-background:new 0 0 64 64;" xml:space="preserve" width="512" height="512">
<linearGradient id="SVGID_1_" gradientUnits="userSpaceOnUse" x1="32" y1="63" x2="32" y2="1">
	<stop offset="0" style="stop-color:#9F2FFF"/>
	<stop offset="1" style="stop-color:#0BB1D3"/>
</linearGradient>
<path style="fill:url(#SVGID_1_);" d="M54.303,59.889c-1.305-1.305-2.794-2.351-4.4-3.148C52.505,54.568,54,51.401,54,48v-1.868  l-1.555,1.036c-1.422,0.948-2.948,1.703-4.554,2.254c0.557-1.343,1.211-2.648,1.967-3.907l1.197-1.996L47,44.42V31  c1.103,0,2-0.897,2-2v-4c0-1.103-0.897-2-2-2h-8.381C41.858,20.849,44,17.172,44,13c0-6.617-5.383-12-12-12S20,6.383,20,13  c0,4.172,2.142,7.849,5.381,10H17c-1.103,0-2,0.897-2,2v4c0,1.103,0.897,2,2,2v13.42l-4.055-0.901l1.197,1.996  c0.756,1.259,1.409,2.564,1.967,3.907c-1.606-0.551-3.132-1.306-4.555-2.254L10,46.132V48c0,3.401,1.496,6.568,4.098,8.741  c-1.606,0.797-3.096,1.843-4.4,3.148L8.586,61H5v2h54v-2h-3.586L54.303,59.889z M33.503,60.089C36.072,58.095,39.225,57,42.5,57  c3.773,0,7.321,1.425,10.055,4H34.414L33.503,60.089z M51.812,49.88c-0.432,2.14-1.598,4.067-3.342,5.463l-0.664,0.532  c-0.551-0.184-1.111-0.342-1.682-0.468c0.229-1.238,0.528-2.455,0.907-3.644C48.699,51.322,50.301,50.696,51.812,49.88z M22,13  c0-5.514,4.486-10,10-10s10,4.486,10,10s-4.486,10-10,10S22,18.514,22,13z M17,25h30l0.002,4H17V25z M45,31v13.891  c-1.021,0.264-2.003,0.639-2.934,1.112c0.121-1.9,0.412-3.79,0.873-5.637l0.529-2.082l-1.861,0.798  c-3.832,1.641-7.126,4.244-9.615,7.56c-2.482-3.29-5.8-5.933-9.598-7.56l-1.861-0.798l0.528,2.078  c0.462,1.851,0.753,3.741,0.874,5.641c-0.932-0.473-1.913-0.848-2.934-1.112V31H45z M18.091,46.712  c3.352,0.744,6.286,2.859,8.052,5.803l1.715-1.029c-1.001-1.668-2.329-3.101-3.875-4.237c-0.041-1.826-0.223-3.649-0.562-5.448  c3.523,1.921,6.494,4.816,8.489,8.308l0.222,0.388l1.736-0.992l-0.222-0.388c-0.142-0.248-0.304-0.482-0.454-0.724  c1.933-2.748,4.449-5,7.387-6.594c-0.338,1.798-0.52,3.623-0.562,5.451c-1.546,1.136-2.874,2.569-3.875,4.237l1.715,1.029  c1.766-2.943,4.7-5.059,8.052-5.803l1.143-0.254c-1.38,2.716-2.34,5.61-2.893,8.623C43.611,55.027,43.058,55,42.5,55  c-3.837,0-7.521,1.327-10.488,3.728C29.048,56.315,25.376,55,21.5,55c-0.558,0-1.111,0.027-1.659,0.081  c-0.552-3.013-1.513-5.906-2.893-8.623L18.091,46.712z M15.529,55.342c-1.744-1.395-2.91-3.322-3.342-5.462  c1.512,0.816,3.114,1.442,4.781,1.883c0.379,1.189,0.678,2.406,0.907,3.643c-0.57,0.126-1.13,0.284-1.682,0.468L15.529,55.342z   M21.5,57c3.773,0,7.321,1.425,10.055,4h-20.11C14.179,58.425,17.727,57,21.5,57z M61,61h2v2h-2V61z M1,61h2v2H1V61z M29,10.5  c0,0.827,0.673,1.5,1.5,1.5h3c1.93,0,3.5,1.57,3.5,3.5S35.43,19,33.5,19H33v2h-2v-2h-0.5c-1.93,0-3.5-1.57-3.5-3.5h2  c0,0.827,0.673,1.5,1.5,1.5h3c0.827,0,1.5-0.673,1.5-1.5S34.327,14,33.5,14h-3c-1.93,0-3.5-1.57-3.5-3.5S28.57,7,30.5,7H31V5h2v2  h0.5c1.93,0,3.5,1.57,3.5,3.5h-2C35,9.673,34.327,9,33.5,9h-3C29.673,9,29,9.673,29,10.5z M15,3h-2V1h2V3z M13,5h2v14h-2V5z M10,10  H8V8h2V10z M8,12h2v14H8V12z M51,3h-2V1h2V3z M49,5h2v14h-2V5z M56,10h-2V8h2V10z M54,12h2v14h-2V12z"/>
</svg>
