<?xml version="1.0" encoding="iso-8859-1"?>
<!-- Generator: Adobe Illustrator 22.1.0, SVG Export Plug-In . SVG Version: 6.00 Build 0)  -->
<svg xmlns="http://www.w3.org/2000/svg" xmlns:xlink="http://www.w3.org/1999/xlink" version="1.1" id="Layer_1_1_" x="0px" y="0px" viewBox="0 0 64 64" style="enable-background:new 0 0 64 64;" xml:space="preserve" width="512" height="512">
<linearGradient id="SVGID_1_" gradientUnits="userSpaceOnUse" x1="32" y1="63" x2="32" y2="1.293">
	<stop offset="0" style="stop-color:#9F2FFF"/>
	<stop offset="1" style="stop-color:#0BB1D3"/>
</linearGradient>
<path style="fill:url(#SVGID_1_);" d="M32,10.414v0.172c0,0.645,0.251,1.251,0.707,1.707l1,1l-1.414,1.414l-1-1  C30.459,12.873,30,11.765,30,10.586v-0.172c0-1.179,0.459-2.287,1.293-3.121C31.749,6.837,32,6.23,32,5.586V5.414  c0-0.645-0.251-1.251-0.707-1.707l-1-1l1.414-1.414l1,1C33.541,3.127,34,4.235,34,5.414v0.172c0,1.179-0.459,2.287-1.293,3.121  C32.251,9.163,32,9.77,32,10.414z M42.707,12.707C43.541,11.873,44,10.765,44,9.586V9.414c0-1.179-0.459-2.287-1.293-3.121l-1-1  l-1.414,1.414l1,1C41.749,8.163,42,8.77,42,9.414v0.172c0,0.645-0.251,1.251-0.707,1.707C40.459,12.127,40,13.235,40,14.414v0.172  c0,1.179,0.459,2.287,1.293,3.121l1,1l1.414-1.414l-1-1C42.251,15.837,42,15.23,42,14.586v-0.172  C42,13.77,42.251,13.163,42.707,12.707z M52.707,16.707C53.541,15.873,54,14.765,54,13.586v-0.172c0-1.179-0.459-2.287-1.293-3.121  l-1-1l-1.414,1.414l1,1C51.749,12.163,52,12.77,52,13.414v0.172c0,0.645-0.251,1.251-0.707,1.707C50.459,16.127,50,17.235,50,18.414  v0.172c0,1.179,0.459,2.287,1.293,3.121l1,1l1.414-1.414l-1-1C52.251,19.837,52,19.23,52,18.586v-0.172  C52,17.77,52.251,17.163,52.707,16.707z M21.293,16.293l-1,1l1.414,1.414l1-1C23.541,16.873,24,15.765,24,14.586v-0.172  c0-1.179-0.459-2.287-1.293-3.121C22.251,10.837,22,10.23,22,9.586V9.414c0-0.645,0.251-1.251,0.707-1.707l1-1l-1.414-1.414l-1,1  C20.459,7.127,20,8.235,20,9.414v0.172c0,1.179,0.459,2.287,1.293,3.121C21.749,13.163,22,13.77,22,14.414v0.172  C22,15.23,21.749,15.837,21.293,16.293z M10,13.586c0,1.179,0.459,2.287,1.293,3.121C11.749,17.163,12,17.77,12,18.414v0.172  c0,0.645-0.251,1.251-0.707,1.707l-1,1l1.414,1.414l1-1C13.541,20.873,14,19.765,14,18.586v-0.172c0-1.179-0.459-2.287-1.293-3.121  C12.251,14.837,12,14.23,12,13.586v-0.172c0-0.645,0.251-1.251,0.707-1.707l1-1l-1.414-1.414l-1,1  C10.459,11.127,10,12.235,10,13.414V13.586z M40,32c0,1.962-0.707,3.824-2,5.287V42H26v-4.713c-1.293-1.463-2-3.325-2-5.287  c0-4.411,3.589-8,8-8S40,27.589,40,32z M38,32c0-3.309-2.691-6-6-6s-6,2.691-6,6c0,1.576,0.609,3.065,1.715,4.195L28,36.486V40h1v-2  h2v2h2v-2h2v2h1v-3.514l0.285-0.291C37.391,35.065,38,33.576,38,32z M28,33h2v-2h-2V33z M34,33h2v-2h-2V33z M61,63h2v-2h-2V63z   M1,63h2v-2H1V63z M41,57h-2v2h2V57z M49,58h-2v2h2V58z M17,57h2v-2h-2V57z M13,60h2v-2h-2V60z M57.618,61H59v2H5v-2h2.412l4.999-9  h2.309l-0.689-2.758l1.939-0.484L16.78,52h0.565l0.699-2.292l1.912,0.584L19.435,52h0.757l1.333,0.533  C21.834,51.64,22,50.713,22,49.764v-0.527c0-1.107-0.234-2.211-0.658-3.236h-2.696C15.533,46,13,43.467,13,40.354  c0-1.093,0.271-2.086,0.785-2.956l9.761-16.519C25.324,17.869,28.601,16,32.097,16c3.414,0,6.547,1.72,8.38,4.6l10.641,16.722  C51.694,38.229,52,39.276,52,40.354C52,43.467,49.467,46,46.354,46h-3.696C42.234,47.025,42,48.129,42,49.236v0.527  c0,1.107,0.234,2.211,0.658,3.236H44v-4h2v4h0.382l1.724-3.447l1.789,0.895L48.618,53H50.5l3,4h2.118L57.618,61z M49.5,55H38.266  l-6.007,3.432L34.459,61h20.923l-1-2H52.5L49.5,55z M18.646,44h27.707C48.364,44,50,42.364,50,40.354  c0-0.695-0.197-1.372-0.57-1.958L38.789,21.674C37.325,19.373,34.823,18,32.097,18c-2.792,0-5.408,1.493-6.828,3.896l-9.761,16.519  C15.176,38.977,15,39.618,15,40.271C15,42.364,16.636,44,18.646,44z M24,49.236v0.527c0,1.205-0.216,2.382-0.619,3.512L25.192,54  h3.268l2.474,2.886L37.734,53h2.794C40.189,51.955,40,50.861,40,49.764v-0.527c0-1.097,0.189-2.191,0.529-3.236H23.471  C23.811,47.045,24,48.139,24,49.236z M9.699,61h22.127l-4.286-5h-2.732l-5-2h-6.219L9.699,61z M23,59h2v-2h-2V59z"/>
</svg>
