<?xml version="1.0" encoding="iso-8859-1"?>
<!-- Generator: Adobe Illustrator 22.1.0, SVG Export Plug-In . SVG Version: 6.00 Build 0)  -->
<svg xmlns="http://www.w3.org/2000/svg" xmlns:xlink="http://www.w3.org/1999/xlink" version="1.1" id="Layer_1_1_" x="0px" y="0px" viewBox="0 0 64 64" style="enable-background:new 0 0 64 64;" xml:space="preserve" width="512" height="512">
<linearGradient id="SVGID_1_" gradientUnits="userSpaceOnUse" x1="32" y1="63" x2="32" y2="1">
	<stop offset="0" style="stop-color:#9F2FFF"/>
	<stop offset="1" style="stop-color:#0BB1D3"/>
</linearGradient>
<path style="fill:url(#SVGID_1_);" d="M34,21h-2v-2h2V21z M40,19h-2v2h2V19z M32,33h2v-2h-2V33z M38,33h2v-2h-2V33z M61.92,33H63v2  h-1.08c-0.08,0.555-0.222,1.09-0.425,1.595l0.932,0.538l-1,1.732l-0.936-0.54c-0.342,0.433-0.733,0.824-1.166,1.166l0.54,0.936  l-1.732,1l-0.538-0.932C57.09,40.698,56.555,40.84,56,40.92V42h-2v-1.08c-1.502-0.216-2.852-0.906-3.889-1.92h-3.818  c0.241,2.275,0.622,4.536,1.177,6.758C48.485,49.819,49,54,49,58.185V61c0,1.103-0.897,2-2,2H37c-0.919,0-1.717-0.623-1.939-1.516  l-0.622-2.483L32.414,59L29,62.414C28.628,62.786,28.112,63,27.586,63H3c-1.103,0-2-0.897-2-2v-8.299C1,47.903,4.903,44,9.701,44  h5.598c1.517,0,3.003-0.521,4.186-1.468C21.083,41.253,22,39.346,22,37.299V13h-1c-1.654,0-3-1.346-3-3V1h32v9c0,1.654-1.346,3-3,3  h-1v20.815c0,1.063,0.039,2.125,0.108,3.185h2.577c-0.297-0.622-0.503-1.294-0.605-2H47v-2h1.08c0.08-0.555,0.222-1.09,0.425-1.596  l-0.932-0.539l1-1.731l0.935,0.54c0.342-0.433,0.733-0.825,1.167-1.167l-0.54-0.936l1.732-1l0.539,0.933  c0.505-0.203,1.04-0.345,1.595-0.425V26h2v1.08c0.555,0.08,1.09,0.222,1.595,0.425l0.539-0.933l1.732,1l-0.54,0.936  c0.433,0.342,0.825,0.733,1.167,1.167l0.935-0.54l1,1.731l-0.932,0.539C61.698,31.91,61.84,32.445,61.92,33z M44,33.815V29H30.414  l-2.468,2.468C27.977,31.641,28,31.818,28,32s-0.023,0.359-0.054,0.532L30.414,35h13.622C44.027,34.605,44,34.211,44,33.815z M44,25  H29.586l-2.692-2.692C26.375,22.734,25.722,23,25,23c-0.352,0-0.686-0.072-1-0.184v6.369C24.314,29.072,24.648,29,25,29  c0.722,0,1.375,0.266,1.894,0.692L29.586,27H44V25z M25,31c-0.552,0-1,0.449-1,1s0.448,1,1,1s1-0.449,1-1S25.552,31,25,31z M25,21  c0.552,0,1-0.449,1-1s-0.448-1-1-1s-1,0.449-1,1S24.448,21,25,21z M44,17H30.414l-2.468,2.468C27.977,19.641,28,19.818,28,20  s-0.023,0.359-0.054,0.532L30.414,23H44V17z M21,11h14.586L39,7.586L42.414,11H47c0.552,0,1-0.449,1-1V3H20v7  C20,10.551,20.448,11,21,11z M24,13v4.184C24.314,17.072,24.648,17,25,17c0.722,0,1.375,0.266,1.894,0.692L29.586,15H44v-2h-2.414  L39,10.414L36.414,13H24z M3.037,52H10v2H3v2h22.586l2.949-2.949c1.322-1.322,3.08-2.051,4.95-2.051H46.45  c-0.198-1.343-0.447-2.677-0.755-4H33.95c-2.925,0-5.675,1.139-7.743,3.207C23.761,52.653,20.509,54,17.05,54H12v-2h5.05  c2.925,0,5.675-1.139,7.743-3.207C27.239,46.347,30.491,45,33.95,45h11.31c-0.589-2.634-0.991-5.308-1.159-8H29.586l-2.692-2.692  C26.375,34.734,25.722,35,25,35c-0.352,0-0.686-0.072-1-0.184v2.483c0,2.657-1.19,5.134-3.266,6.795  C19.198,45.323,17.268,46,15.299,46H9.701C6.243,46,3.389,48.633,3.037,52z M47,58.185c0-1.732-0.11-3.462-0.293-5.185H33.485  c-1.336,0-2.592,0.521-3.536,1.465L26.414,58H3v3h24.586L31,57.586C31.372,57.214,31.888,57,32.414,57h2.024  c0.919,0,1.717,0.623,1.939,1.516L37,60.999l2,0V58h2v2.999l2,0v-3h2v3l2,0V58.185z M55,35c0.552,0,1-0.448,1-1s-0.448-1-1-1  s-1,0.448-1,1S54.448,35,55,35z M52.247,38.167C53.038,38.691,53.983,39,55,39c2.757,0,5-2.243,5-5s-2.243-5-5-5s-5,2.243-5,5  c0,1.017,0.309,1.962,0.833,2.753l1.468-1.468C52.113,34.894,52,34.462,52,34c0-1.654,1.346-3,3-3s3,1.346,3,3s-1.346,3-3,3  c-0.462,0-0.894-0.113-1.285-0.301L52.247,38.167z"/>
</svg>
