<?xml version="1.0" encoding="iso-8859-1"?>
<!-- Generator: Adobe Illustrator 22.1.0, SVG Export Plug-In . SVG Version: 6.00 Build 0)  -->
<svg xmlns="http://www.w3.org/2000/svg" xmlns:xlink="http://www.w3.org/1999/xlink" version="1.1" id="Layer_1_1_" x="0px" y="0px" viewBox="0 0 64 64" style="enable-background:new 0 0 64 64;" xml:space="preserve" width="512" height="512">
<linearGradient id="SVGID_1_" gradientUnits="userSpaceOnUse" x1="32" y1="1" x2="32" y2="63" gradientTransform="matrix(1 0 0 -1 0 64)">
	<stop offset="0" style="stop-color:#9F2FFF"/>
	<stop offset="1" style="stop-color:#0BB1D3"/>
</linearGradient>
<path style="fill:url(#SVGID_1_);" d="M32,22.853L12.447,1H1v11.447l22.388,20.031l-5.428,6.067L15,35.585L10.586,40l2,2l-3,3  l2.5,2.5L6.5,53.086L5.414,52H2.586L1,53.586v2.828L7.586,63h2.828L12,61.414v-2.828L10.914,57.5l5.586-5.586l2.5,2.5l3-3l2,2  L28.414,49l-2.96-2.96L32,40.184l6.546,5.856L35.586,49L40,53.414l2-2l3,3l2.5-2.5l5.586,5.586L52,58.586v2.828L53.586,63h2.828  L63,56.414v-2.828L61.414,52h-2.828L57.5,53.086L51.914,47.5l2.5-2.5l-3-3l2-2L49,35.586l-2.96,2.96l-5.428-6.067L63,12.447V1  H51.553L32,22.853z M3,11.553V4.414l21.793,21.793l1.414-1.414L4.414,3h7.139l19.105,21.353l-5.937,6.635L3,11.553z M10,60.586  L9.586,61H8.414L3,55.586v-1.172L3.414,54h1.172L10,59.414V60.586z M9.5,56.086L7.914,54.5l5.586-5.586l1.586,1.586L9.5,56.086z   M19,51.586L12.414,45L14,43.414L20.586,50L19,51.586z M24,50.586L13.414,40L15,38.414L25.586,49L24,50.586z M33.5,38.842  l2.073-1.855L41.586,43l-1.624,1.624L33.5,38.842z M59.414,54h1.172L61,54.414v1.172L55.586,61h-1.172L54,60.586v-1.172L59.414,54z   M56.086,54.5L54.5,56.086L48.914,50.5l1.586-1.586L56.086,54.5z M51.586,45L45,51.586L43.414,50L50,43.414L51.586,45z M50.586,40  L40,50.586L38.414,49L49,38.414L50.586,40z M44.624,39.962L43,41.586l-5.934-5.934l2.056-1.84L44.624,39.962z M59.586,3  L37.793,24.793l1.414,1.414L61,4.414v7.139L24.038,44.624L22.414,43l15.293-15.293l-1.414-1.414L21,41.586l-1.624-1.624L52.447,3  H59.586z M32,19.803L37.202,12L32,4.197L26.798,12L32,19.803z M34.798,12L32,16.197L29.202,12L32,7.803L34.798,12z M30.245,5.15  l-1.848,0.766l-1.531-3.695l1.848-0.766L30.245,5.15z M21.455,8.714l0.766-1.848l3.695,1.531l-0.766,1.848L21.455,8.714z   M38.084,8.397l3.695-1.531l0.766,1.848l-3.695,1.531L38.084,8.397z M37.133,2.22l-1.531,3.695l-1.848-0.766l1.531-3.695  L37.133,2.22z M33,55v2h-2v-2H33z M37,55v2h-2v-2H37z M29,55v2h-2v-2H29z"/>
</svg>
