<?xml version="1.0" encoding="iso-8859-1"?>
<!-- Generator: Adobe Illustrator 22.1.0, SVG Export Plug-In . SVG Version: 6.00 Build 0)  -->
<svg xmlns="http://www.w3.org/2000/svg" xmlns:xlink="http://www.w3.org/1999/xlink" version="1.1" id="Layer_1_1_" x="0px" y="0px" viewBox="0 0 64 64" style="enable-background:new 0 0 64 64;" xml:space="preserve" width="512" height="512">
<linearGradient id="SVGID_1_" gradientUnits="userSpaceOnUse" x1="32" y1="63" x2="32" y2="1">
	<stop offset="0" style="stop-color:#9F2FFF"/>
	<stop offset="1" style="stop-color:#0BB1D3"/>
</linearGradient>
<path style="fill:url(#SVGID_1_);" d="M58.728,4.788C58.17,2.558,56.176,1,53.877,1H10.123C7.824,1,5.83,2.558,5.272,4.787L3.219,13  H1v6h2v13c-1.103,0-2,0.897-2,2v3c0,1.103,0.897,2,2,2v6H1v6h2v6c-1.103,0-2,0.897-2,2v2c0,1.103,0.897,2,2,2h58  c1.103,0,2-0.897,2-2v-2c0-1.103-0.897-2-2-2v-6h2v-6h-2v-6c1.103,0,2-0.897,2-2v-3c0-1.103-0.897-2-2-2V19h2v-6h-2.219  L58.728,4.788z M7.213,5.272C7.547,3.935,8.744,3,10.123,3h43.754c1.379,0,2.576,0.935,2.91,2.272L58.719,13H42v-1  c0-1.654-1.346-3-3-3H25c-1.654,0-3,1.346-3,3v1H5.281L7.213,5.272z M36,17v-4h-8v4h-4v-5c0-0.551,0.449-1,1-1h14  c0.551,0,1,0.449,1,1v5H36z M34,17h-4v-2h4V17z M3,15h19v2H3V15z M3,34h20.921l2.538,3H3V34z M34.392,37.624L36.738,30h4.105  L34.392,37.624z M34.646,30L32,38.6L29.354,30H34.646z M29.868,28L32,24.803L34.132,28H29.868z M37.868,28l2.008-3.011L41.382,28  H37.868z M36,27.197L33.868,24h4.263L36,27.197z M28,27.197L25.868,24h4.263L28,27.197z M24.124,24.989L26.132,28h-3.513  L24.124,24.989z M27.262,30l2.346,7.624L23.156,30H27.262z M61.001,61H3v-2h58L61.001,61z M59,57H5v-6h54V57z M61,49H3v-2h58V49z   M59,45H5v-6h23.151L32,43.548L35.849,39H59V45z M61,37H37.541l2.538-3H61V37z M59,32H41.772l2.418-2.857L40.618,22H23.382  l-3.571,7.143L22.228,32H5V19h54V32z M61,17H42v-2h19V17z M10,41h2v2h-2V41z M10,55v-2h2v2H10z M52,43v-2h2v2H52z M54,55h-2v-2h2V55  z M21.394,22.808l-2.122-2.122l1.414-1.414l2.122,2.122L21.394,22.808z M16,28v-2h3v2H16z M48,28h-3v-2h3V28z M42.606,22.808  l-1.414-1.414l2.122-2.122l1.414,1.414L42.606,22.808z"/>
</svg>
