<?xml version="1.0" encoding="iso-8859-1"?>
<!-- Generator: Adobe Illustrator 22.1.0, SVG Export Plug-In . SVG Version: 6.00 Build 0)  -->
<svg xmlns="http://www.w3.org/2000/svg" xmlns:xlink="http://www.w3.org/1999/xlink" version="1.1" id="Layer_1_1_" x="0px" y="0px" viewBox="0 0 64 64" style="enable-background:new 0 0 64 64;" xml:space="preserve" width="512" height="512">
<linearGradient id="SVGID_1_" gradientUnits="userSpaceOnUse" x1="32" y1="63" x2="32" y2="2.0117">
	<stop offset="0" style="stop-color:#9F2FFF"/>
	<stop offset="1" style="stop-color:#0BB1D3"/>
</linearGradient>
<path style="fill:url(#SVGID_1_);" d="M33,45h-2v-2h2V45z M27,43h-2v2h2V43z M21,43h-2v2h2V43z M15,43h-2v2h2V43z M51,43h-2v2h2V43z   M45,43h-2v2h2V43z M39,43h-2v2h2V43z M4,39v-2c0-1.103,0.897-2,2-2h3.025c0.181-4.212,1.502-8.132,3.66-11.464  C11.609,22.275,11,20.666,11,19c0-0.239,0.012-0.475,0.036-0.708L7.335,9.966C7.224,9.979,7.115,10,7,10c-1.654,0-3-1.346-3-3  s1.346-3,3-3s3,1.346,3,3c0,0.144-0.023,0.281-0.042,0.419l7.383,4.614C17.558,12.013,17.777,12,18,12  c2.161,0,4.149,0.977,5.471,2.646C26.11,13.588,28.987,13,32,13s5.89,0.588,8.529,1.646C41.851,12.977,43.839,12,46,12  c0.223,0,0.442,0.013,0.66,0.033l7.383-4.614C54.023,7.281,54,7.144,54,7c0-1.654,1.346-3,3-3s3,1.346,3,3s-1.346,3-3,3  c-0.115,0-0.224-0.021-0.335-0.034l-3.701,8.326C52.988,18.525,53,18.761,53,19c0,1.666-0.609,3.275-1.685,4.536  c2.157,3.332,3.479,7.251,3.66,11.464H58c1.103,0,2,0.897,2,2v2c0,1.103-0.897,2-2,2h-1.307l-2.27,6.053  C53.986,48.218,52.857,49,51.614,49H51c0,2.206-1.794,4-4,4H17c-2.206,0-4-1.794-4-4h-0.614c-1.244,0-2.373-0.782-2.809-1.947  L7.307,41H6C4.897,41,4,40.103,4,39z M49,49H15c0,1.103,0.897,2,2,2h30C48.103,51,49,50.103,49,49z M54.557,41H9.443l2.007,5.351  C11.595,46.739,11.972,47,12.386,47h39.228c0.415,0,0.791-0.261,0.937-0.649L54.557,41z M56,7c0,0.551,0.449,1,1,1s1-0.449,1-1  s-0.449-1-1-1S56,6.449,56,7z M49.221,12.791c1.17,0.61,2.144,1.54,2.812,2.674l2.727-6.136L49.221,12.791z M42.433,15.513  c2.994,1.531,5.609,3.698,7.668,6.323C50.676,21.006,51,20.018,51,19c0-2.757-2.243-5-5-5C44.631,14,43.363,14.555,42.433,15.513z   M7,8c0.551,0,1-0.449,1-1S7.551,6,7,6S6,6.449,6,7S6.449,8,7,8z M11.968,15.466c0.667-1.134,1.641-2.065,2.812-2.674L9.241,9.33  L11.968,15.466z M13.899,21.836c2.059-2.625,4.674-4.792,7.668-6.323C20.637,14.555,19.369,14,18,14c-2.757,0-5,2.243-5,5  C13,20.018,13.324,21.006,13.899,21.836z M11.051,35h2C13.576,24.989,21.861,17,32,17s18.424,7.989,18.949,18h2  C52.422,23.886,43.242,15,32,15S11.578,23.886,11.051,35z M32,19c-9.036,0-16.427,7.092-16.949,16h33.899  C48.427,26.092,41.036,19,32,19z M6,39h52.001L58,37H6V39z M52,4h-2v2h2V4z M23.876,5.988l3.044,6.088L30.566,6H48V4H29.434  L27.08,7.923l-2.956-5.912L21.465,6H14v2h8.535L23.876,5.988z M36.285,21.621l-0.57,1.917c3.109,0.925,5.747,2.972,7.429,5.764  l1.713-1.032C42.917,25.05,39.873,22.689,36.285,21.621z M32,23c0.622,0,1.247,0.044,1.859,0.131l0.282-1.979  C33.437,21.051,32.716,21,32,21V23z M31,55h-2v4h2V55z M29,63h2v-2h-2V63z M27,63v-8h-2v8H27z M23,61v-6h-2v6H23z M19,55h-2v4h2V55z   M17,63h2v-2h-2V63z M47,61v-6h-2v6H47z M43,55h-2v4h2V55z M41,63h2v-2h-2V63z M39,63v-8h-2v8H39z M35,61v-6h-2v6H35z"/>
</svg>
