<?xml version="1.0" encoding="iso-8859-1"?>
<!-- Generator: Adobe Illustrator 22.1.0, SVG Export Plug-In . SVG Version: 6.00 Build 0)  -->
<svg xmlns="http://www.w3.org/2000/svg" xmlns:xlink="http://www.w3.org/1999/xlink" version="1.1" id="Layer_1_1_" x="0px" y="0px" viewBox="0 0 64 64" style="enable-background:new 0 0 64 64;" xml:space="preserve" width="512" height="512">
<linearGradient id="SVGID_1_" gradientUnits="userSpaceOnUse" x1="32.793" y1="63" x2="32.793" y2="1">
	<stop offset="0" style="stop-color:#9F2FFF"/>
	<stop offset="1" style="stop-color:#0BB1D3"/>
</linearGradient>
<path style="fill:url(#SVGID_1_);" d="M47,1c-5.514,0-10,4.486-10,10v1h6v-1c0-2.206,1.794-4,4-4s4,1.794,4,4s-1.794,4-4,4h-3v7  h0.031c-0.97,0.722-1.68,1.774-1.93,3H40v2h2.101c0.25,1.226,0.96,2.278,1.93,3H44v30c0,1.654,1.346,3,3,3s3-1.346,3-3V30h-0.031  c0.97-0.722,1.68-1.774,1.93-3H54v-2h-2.101c-0.25-1.226-0.96-2.278-1.93-3H50v-1.465c4.16-1.297,7-5.11,7-9.535  C57,5.486,52.514,1,47,1z M46,55h2v2h-2V55z M46,53v-2h2v2H46z M46,49v-2h2v2H46z M46,45v-2h2v2H46z M46,41v-2h2v2H46z M46,37v-2h2  v2H46z M47,61c-0.551,0-1-0.448-1-1v-1h2v1C48,60.552,47.551,61,47,61z M48,33h-2v-2.101C46.323,30.965,46.658,31,47,31  s0.677-0.035,1-0.101V33z M47,29c-1.654,0-3-1.346-3-3s1.346-3,3-3s3,1.346,3,3S48.654,29,47,29z M48.778,18.794L48,18.972v2.129  C47.677,21.035,47.342,21,47,21s-0.677,0.035-1,0.101V17h1c3.309,0,6-2.691,6-6s-2.691-6-6-6c-2.968,0-5.439,2.166-5.917,5h-2.021  C39.556,6.06,42.928,3,47,3c4.411,0,8,3.589,8,8C55,14.756,52.441,17.961,48.778,18.794z M31.895,10.553l-0.621-1.24l-0.981,0.98  C29.192,11.394,27.728,12,26.171,12h-0.197c-0.279-0.369-0.606-0.695-0.974-0.974v-0.197c0-1.557,0.606-3.021,1.707-4.121  l0.981-0.981l-1.241-0.62c-1.229-0.614-2.347-1.42-3.321-2.394L22,1.586l-1.126,1.126c-0.974,0.974-2.092,1.779-3.321,2.394  l-1.241,0.62l0.981,0.981C18.33,7.744,19,9.229,19,10.493v0.532c-0.369,0.279-0.695,0.606-0.974,0.974h-0.197  c-1.557,0-3.021-0.606-4.122-1.707l-0.981-0.98l-0.621,1.24c-0.616,1.231-1.421,2.349-2.394,3.321L8.586,15l1.126,1.126  c0.973,0.973,1.778,2.09,2.394,3.321l0.621,1.24l0.981-0.98C14.808,18.606,16.272,18,17.829,18h0.197  c0.279,0.369,0.606,0.695,0.974,0.974v0.197c0,1.557-0.606,3.021-1.707,4.121l-0.981,0.981l1.241,0.62  c0.504,0.252,0.983,0.543,1.447,0.858v5.63c-0.615,0.703-1,1.612-1,2.618s0.385,1.914,1,2.618V53h-2v6h2v1c0,1.654,1.346,3,3,3  s3-1.346,3-3v-1h2v-6h-2V36.618c0.615-0.703,1-1.612,1-2.618s-0.385-1.914-1-2.618v-5.63c0.464-0.314,0.944-0.606,1.447-0.858  l1.241-0.62l-0.981-0.981C25.606,22.192,25,20.729,25,19.172v-0.197c0.369-0.279,0.695-0.606,0.974-0.974h0.197  c1.557,0,3.021,0.606,4.122,1.707l0.981,0.98l0.621-1.24c0.616-1.231,1.421-2.349,2.394-3.321L35.414,15l-1.126-1.126  C33.315,12.901,32.51,11.784,31.895,10.553z M19.547,6.285c0.88-0.538,1.701-1.167,2.453-1.879c0.751,0.712,1.572,1.34,2.452,1.878  c-0.806,1.126-1.272,2.443-1.397,3.833C22.714,10.043,22.362,10,22,10c-0.355,0-0.701,0.04-1.035,0.111  C20.878,8.814,20.379,7.447,19.547,6.285z M13.284,17.452c-0.538-0.881-1.167-1.702-1.877-2.452  c0.711-0.751,1.339-1.571,1.877-2.452c1.126,0.806,2.444,1.272,3.833,1.397C17.043,14.286,17,14.638,17,15s0.043,0.714,0.117,1.055  C15.728,16.18,14.41,16.646,13.284,17.452z M22,36c-1.103,0-2-0.897-2-2s0.897-2,2-2s2,0.897,2,2S23.103,36,22,36z M22,30  c-0.347,0-0.678,0.058-1,0.142v-2.728l1,1l1-1v2.728C22.678,30.058,22.347,30,22,30z M23,60c0,0.552-0.449,1-1,1s-1-0.448-1-1v-1h2  V60z M25,57h-6v-2h6V57z M21,53V37.858C21.322,37.942,21.653,38,22,38s0.678-0.058,1-0.142V53H21z M24.452,23.716  c-0.879,0.538-1.7,1.166-2.452,1.878c-0.751-0.712-1.572-1.34-2.452-1.878c0.806-1.126,1.272-2.443,1.397-3.833  C21.286,19.957,21.638,20,22,20s0.714-0.043,1.055-0.117C23.18,21.272,23.646,22.59,24.452,23.716z M22,18c-1.654,0-3-1.346-3-3  s1.346-3,3-3s3,1.346,3,3S23.654,18,22,18z M30.716,17.452c-1.126-0.806-2.444-1.272-3.833-1.397C26.957,15.714,27,15.362,27,15  s-0.043-0.714-0.117-1.055c1.389-0.125,2.707-0.591,3.833-1.397c0.538,0.881,1.167,1.702,1.877,2.452  C31.882,15.751,31.254,16.571,30.716,17.452z M21,14h2v2h-2V14z M46,25h2v2h-2V25z"/>
</svg>
