<?xml version="1.0" standalone="no"?>
<!DOCTYPE svg PUBLIC "-//W3C//DTD SVG 20010904//EN"
 "http://www.w3.org/TR/2001/REC-SVG-20010904/DTD/svg10.dtd">
<svg version="1.0" xmlns="http://www.w3.org/2000/svg"
 width="512.000000pt" height="512.000000pt" viewBox="0 0 512.000000 512.000000"
 preserveAspectRatio="xMidYMid meet">
<metadata>
Created by potrace 1.14, written by Peter Selinger 2001-2017
</metadata>
<g transform="translate(0.000000,512.000000) scale(0.100000,-0.100000)"
fill="#000000" stroke="none">
<path d="M614 5025 c-89 -19 -161 -60 -231 -130 -69 -70 -109 -141 -128 -229
-11 -49 -13 -448 -14 -2106 -1 -2214 -3 -2112 51 -2214 23 -42 96 -138 110
-144 5 -2 15 -10 22 -18 8 -7 39 -27 69 -44 115 -63 12 -60 1925 -60 l1742 0
0 80 c0 44 -3 79 -7 78 -21 -5 -118 25 -156 48 -53 33 -76 57 -111 116 -34 58
-40 85 -40 173 0 56 6 81 27 122 49 96 108 142 222 173 l60 17 3 1437 2 1436
273 0 c159 0 288 4 310 11 86 24 145 114 132 205 -8 62 -20 80 -118 182 l-81
82 86 88 c98 100 105 112 114 179 10 84 -33 158 -111 194 -36 17 -69 19 -322
19 l-283 0 0 160 0 160 -1742 -1 c-1404 -1 -1755 -3 -1804 -14z m3386 -2065
l0 -1920 -1600 0 -1600 0 0 1920 0 1920 1600 0 1600 0 0 -1920z m-3360 1792
l0 -118 -60 -18 c-33 -10 -88 -36 -121 -57 l-61 -40 6 58 c7 74 15 102 38 135
10 14 18 29 18 33 0 15 79 79 125 101 28 13 51 24 53 24 1 0 2 -53 2 -118z
m4070 -207 c6 -8 10 -19 8 -25 -2 -6 -64 -72 -138 -146 l-134 -134 139 -140
c119 -120 138 -143 129 -158 -10 -15 -37 -17 -283 -20 l-271 -2 0 320 0 320
269 0 c224 0 271 -2 281 -15z m-4070 -194 l0 -119 -46 -11 c-55 -14 -116 -44
-163 -80 l-34 -25 5 59 c8 116 81 224 182 271 28 13 52 24 54 24 1 0 2 -53 2
-119z m0 -400 l0 -119 -32 -7 c-45 -9 -114 -41 -166 -77 l-44 -30 5 61 c10
116 81 220 182 267 28 13 51 24 53 24 1 0 2 -54 2 -119z m0 -399 l0 -118 -62
-19 c-35 -10 -70 -24 -79 -31 -8 -8 -19 -14 -23 -14 -4 0 -23 -12 -42 -26
l-34 -26 0 39 c0 121 74 236 185 289 28 13 51 24 53 24 1 0 2 -53 2 -118z m0
-400 l0 -118 -62 -19 c-35 -10 -70 -24 -79 -31 -8 -8 -19 -14 -23 -14 -4 0
-24 -12 -43 -27 l-36 -28 5 62 c11 118 81 222 182 269 28 13 52 24 54 24 1 0
2 -53 2 -118z m0 -401 l0 -119 -46 -11 c-54 -14 -116 -44 -161 -79 l-33 -24 0
39 c0 121 74 236 185 289 28 13 51 24 53 24 1 0 2 -53 2 -119z m0 -400 l0
-119 -46 -11 c-55 -14 -116 -44 -163 -80 l-34 -26 5 62 c11 118 81 221 183
269 28 13 51 24 53 24 1 0 2 -53 2 -119z m0 -399 l0 -118 -62 -19 c-35 -10
-70 -24 -79 -31 -8 -8 -19 -14 -23 -14 -4 0 -23 -12 -42 -26 l-34 -26 0 39 c0
86 42 177 110 242 19 18 113 70 128 71 1 0 2 -53 2 -118z m0 -402 l0 -119 -36
-7 c-44 -8 -127 -48 -172 -82 l-35 -27 6 67 c10 115 79 216 182 264 28 13 51
24 53 24 1 0 2 -54 2 -120z m0 -399 l0 -119 -32 -7 c-49 -11 -133 -50 -174
-82 l-37 -28 6 67 c10 115 79 216 182 264 28 13 51 24 53 24 1 0 2 -54 2 -119z
m3138 -303 c-35 -46 -65 -108 -79 -162 l-11 -46 -1404 0 -1404 0 0 -80 0 -80
1403 0 1403 0 19 -63 c10 -34 35 -88 57 -120 l38 -57 -1557 0 c-1133 0 -1570
4 -1603 12 -88 22 -166 89 -209 178 -22 46 -26 68 -25 135 1 112 39 185 134
257 79 60 -9 57 1699 57 l1563 1 -24 -32z"/>
<path d="M1280 3000 l0 -1560 1120 0 1120 0 0 1560 0 1560 -1120 0 -1120 0 0
-1560z m2080 0 l0 -1400 -960 0 -960 0 0 1400 0 1400 960 0 960 0 0 -1400z"/>
<path d="M2345 4145 c-27 -47 -90 -153 -139 -235 l-90 -150 -287 -2 -287 -3
139 -230 c76 -126 138 -237 138 -245 0 -8 -62 -118 -139 -245 l-138 -230 287
-3 286 -2 140 -235 c77 -129 142 -234 145 -234 3 0 68 105 145 234 l140 235
286 2 287 3 -135 225 c-75 124 -138 233 -140 242 -4 14 143 272 249 438 l29
45 -288 3 -288 2 -140 235 c-77 129 -142 234 -145 235 -3 0 -27 -38 -55 -85z
m108 -307 l47 -78 -101 0 -100 0 36 55 c19 31 35 58 35 62 0 7 32 45 35 41 1
-2 23 -38 48 -80z m-481 -318 c-26 -44 -49 -80 -52 -80 -3 0 -26 36 -52 80
l-47 80 99 0 99 0 -47 -80z m716 -74 c50 -85 92 -160 92 -166 0 -6 -42 -81
-92 -166 l-93 -154 -195 0 -195 0 -92 155 c-51 85 -93 159 -93 165 0 7 42 81
92 166 l93 154 195 0 195 0 93 -154z m244 74 c-26 -44 -49 -80 -52 -80 -3 0
-26 36 -52 80 l-47 80 99 0 99 0 -47 -80z m-960 -480 l47 -80 -95 0 c-71 0
-95 3 -92 13 4 17 82 147 88 147 3 0 26 -36 52 -80z m961 -2 l47 -78 -100 0
-99 0 36 63 c35 59 64 100 68 95 1 -2 23 -38 48 -80z m-481 -318 c-26 -43 -49
-79 -52 -79 -3 0 -26 35 -52 79 l-47 80 99 0 99 0 -47 -80z"/>
<path d="M1920 2000 l0 -80 80 0 80 0 0 80 0 80 -80 0 -80 0 0 -80z"/>
<path d="M2320 2000 l0 -80 80 0 80 0 0 80 0 80 -80 0 -80 0 0 -80z"/>
<path d="M2720 2000 l0 -80 80 0 80 0 0 80 0 80 -80 0 -80 0 0 -80z"/>
<path d="M560 560 l0 -80 80 0 80 0 0 80 0 80 -80 0 -80 0 0 -80z"/>
</g>
</svg>
